<svg xmlns="http://www.w3.org/2000/svg" width="100" height="100"><path d="M81.232 15.389h-62.463c-1.882 0-3.407 1.525-3.407 3.407v3.143c0 1.881 1.525 3.407 3.407 3.407h62.463c1.881 0 3.407-1.525 3.407-3.407v-3.143c0-1.882-1.526-3.407-3.407-3.407zM81.232 35.144h-62.463c-1.882 0-3.407 1.525-3.407 3.407v3.143c0 1.881 1.525 3.407 3.407 3.407h62.463c1.881 0 3.407-1.525 3.407-3.407v-3.143c0-1.881-1.526-3.407-3.407-3.407zM81.232 54.899h-62.463c-1.882 0-3.407 1.525-3.407 3.407v3.143c0 1.881 1.525 3.407 3.407 3.407h62.463c1.881 0 3.407-1.525 3.407-3.407v-3.143c0-1.881-1.526-3.407-3.407-3.407zM81.232 74.654h-62.463c-1.882 0-3.407 1.525-3.407 3.407v3.143c0 1.881 1.525 3.407 3.407 3.407h62.463c1.881 0 3.407-1.525 3.407-3.407v-3.143c0-1.881-1.526-3.407-3.407-3.407z"/></svg>