<svg xmlns="http://www.w3.org/2000/svg" width="100" height="100"><path d="M81.232 15.138h-62.463c-1.882 0-3.407 1.525-3.407 3.407v3.143c0 1.881 1.525 3.407 3.407 3.407h62.463c1.881 0 3.407-1.525 3.407-3.407v-3.143c0-1.882-1.526-3.407-3.407-3.407zM18.769 45.008h45.634c1.881 0 3.407-1.525 3.407-3.407v-3.143c0-1.882-1.525-3.407-3.407-3.407h-45.634c-1.882 0-3.407 1.525-3.407 3.407v3.143c-.001 1.882 1.525 3.407 3.407 3.407zM74.403 74.905h-55.634c-1.882 0-3.407 1.525-3.407 3.407v3.143c0 1.881 1.525 3.407 3.407 3.407h55.634c1.881 0 3.407-1.525 3.407-3.407h.015v-3.143h-.015c0-1.881-1.526-3.407-3.407-3.407zM18.769 64.94h38.82c1.881 0 3.407-1.525 3.407-3.407v-3.143c0-1.882-1.525-3.407-3.407-3.407h-38.82c-1.882 0-3.407 1.525-3.407 3.407v3.143c-.001 1.881 1.525 3.407 3.407 3.407z"/></svg>