<svg xmlns="http://www.w3.org/2000/svg" width="100" height="100"><path d="M39.171 88.427l5.103-30.768c.093-.558-.089-1.125-.489-1.524l-.002-.003c-.403-.4-.971-.581-1.531-.486l-30.685 5.186c-.646.108-1.176.571-1.375 1.196-.202.622-.034 1.308.43 1.772l6 5.999-16.108 16.108c-.685.685-.685 1.793 0 2.479l11.1 11.101c.686.685 1.793.685 2.479 0l16.108-16.108 6.002 6.002c.462.462 1.148.627 1.774.429.626-.2 1.087-.734 1.194-1.383zM60.829 11.573l-5.104 30.768c-.093.557.09 1.125.489 1.524l.003.003c.403.4.972.581 1.53.486l30.685-5.187c.647-.108 1.176-.571 1.376-1.196.202-.623.034-1.308-.431-1.773l-5.999-5.999 16.108-16.107c.685-.686.685-1.794 0-2.479l-11.1-11.099c-.685-.685-1.794-.685-2.479 0l-16.108 16.107-6.002-6.001c-.463-.463-1.15-.629-1.775-.429-.624.2-1.085.733-1.193 1.382z"/></svg>