<svg xmlns="http://www.w3.org/2000/svg" width="100" height="100"><path d="M89.148 32.927l.011-.107c0-1.023-.393-1.935-1.016-2.642l.02-.011-7.87-13.627c-.276-1.111-1.281-1.916-2.468-1.914l-.242.024v-.024h-55.364v.004l-.039-.004c-.96-.001-1.759.529-2.17 1.315l-.008-.005-8.212 14.231.015.008c-.596.707-.963 1.619-.963 2.642l.014.138v48.211l-.014.142c0 2.284 1.817 4.069 4.095 4.066l.125-.012h69.87l.126.012c2.283 0 4.1-1.782 4.1-4.062l-.011-.104v-48.281zm-25.735 24.565l-12.391 17.43c-.226.318-.59.505-.98.507h-.004c-.386 0-.751-.187-.977-.503l-12.471-17.432c-.262-.368-.299-.85-.091-1.251.208-.401.62-.654 1.071-.654h5.833l.001-15.654c0-.667.538-1.205 1.203-1.205h10.789c.665 0 1.204.539 1.204 1.204v15.655h5.83c.453 0 .867.253 1.071.652.207.399.173.883-.088 1.251zm-45.037-28.759l5.263-9.119h52.67l5.266 9.119h-63.199z"/></svg>