<svg xmlns="http://www.w3.org/2000/svg" width="100" height="100"><path d="M4.712 69.854l-4.69 28.273c-.086.512.082 1.034.449 1.401l.002.003c.37.368.893.535 1.406.447l28.197-4.765c.594-.1 1.081-.525 1.264-1.1.185-.572.031-1.202-.396-1.628l-5.513-5.513 14.802-14.802c.63-.629.63-1.647 0-2.277l-10.2-10.201c-.63-.629-1.648-.629-2.278 0l-14.801 14.801-5.515-5.515c-.425-.425-1.055-.577-1.63-.394-.575.184-.998.674-1.097 1.27zM95.288 30.146l4.69-28.273c.085-.512-.083-1.034-.449-1.4l-.002-.003c-.37-.367-.893-.534-1.406-.447l-28.197 4.765c-.594.1-1.081.525-1.265 1.1-.185.572-.031 1.202.396 1.628l5.513 5.513-14.802 14.801c-.629.629-.629 1.648 0 2.278l10.2 10.201c.63.629 1.648.629 2.278 0l14.802-14.802 5.515 5.515c.425.425 1.056.578 1.63.394.575-.184.999-.674 1.097-1.27zM69.854 95.288l28.271 4.69c.512.086 1.035-.082 1.401-.449l.002-.003c.368-.37.535-.892.448-1.406l-4.765-28.196c-.1-.594-.525-1.081-1.1-1.265-.572-.185-1.202-.031-1.628.396l-5.513 5.513-14.801-14.803c-.628-.628-1.647-.628-2.277.001l-10.201 10.201c-.629.629-.629 1.648 0 2.277l14.802 14.802-5.515 5.515c-.425.425-.577 1.055-.393 1.63.183.575.673.999 1.269 1.097zM30.146 4.712l-28.272-4.69c-.513-.086-1.034.082-1.401.449l-.003.003c-.367.37-.534.892-.447 1.406l4.766 28.197c.1.593.525 1.081 1.099 1.264.573.186 1.202.032 1.629-.395l5.513-5.513 14.8 14.801c.63.63 1.648.63 2.278.001l10.201-10.201c.63-.63.63-1.648 0-2.278l-14.802-14.802 5.515-5.515c.424-.425.577-1.056.394-1.63-.184-.575-.674-.999-1.27-1.097z"/></svg>