<svg xmlns="http://www.w3.org/2000/svg" width="100" height="100"><path d="M5.128 67.194l-5.104 30.768c-.093.558.09 1.125.489 1.524l.002.003c.403.4.972.581 1.531.486l30.685-5.186c.647-.108 1.178-.572 1.376-1.197.201-.622.034-1.308-.431-1.771l-6-5.999 16.109-16.108c.685-.685.685-1.793 0-2.478l-11.101-11.102c-.685-.685-1.793-.685-2.479 0l-16.107 16.108-6.002-6.002c-.464-.462-1.149-.627-1.774-.428-.625.2-1.086.733-1.194 1.382zM94.872 32.806l5.104-30.768c.093-.558-.09-1.125-.489-1.524l-.002-.003c-.404-.399-.972-.581-1.531-.487l-30.685 5.186c-.646.109-1.177.572-1.377 1.197-.2.623-.033 1.308.431 1.772l6.001 5.998-16.109 16.109c-.685.686-.685 1.794 0 2.48l11.102 11.101c.685.685 1.794.685 2.479 0l16.107-16.108 6.001 6.001c.465.463 1.15.629 1.775.43.624-.202 1.086-.735 1.193-1.384z"/></svg>