<svg xmlns="http://www.w3.org/2000/svg" width="100" height="100"><path d="M82.063 22.284h-.006c-.029-.874-.734-1.573-1.612-1.589v-.003h-3.36l-.001 60.404.001.01c0 .9-.721 1.627-1.617 1.644v.005l-50.906-.002c-.816 0-1.488-.595-1.619-1.375v-3.602h47.405v-.003l.031.003c.91 0 1.646-.735 1.646-1.646l-.002-.012.002-62.202c0-.91-.736-1.647-1.646-1.646l-.03.003v-.004h-5.756v34.952000000000005c0 .434-.353.785-.787.785-.228 0-.429-.101-.573-.255l-5.667-5.667h-.019c-.126-.145-.306-.241-.513-.241-.207 0-.387.096-.513.241h-.019l-5.709 5.709h-.009c-.14.13-.325.214-.532.214-.434 0-.786-.352-.786-.785v-34.952h-29.883c-.91 0-1.646.736-1.646 1.646l.006.063v72.044l-.006.059.006.059v.076h.008c.07.845.769 1.511 1.632 1.511v.001l60.833.002h.029v-.003c.896-.016 1.617-.743 1.617-1.643l-.001-.01.002-63.791z"/></svg>