<svg xmlns="http://www.w3.org/2000/svg" width="100" height="100"><path d="M88.466 16.936c-.172-1.703-1.592-3.036-3.34-3.036h-70.345v.009c-1.705.047-3.079 1.355-3.247 3.027h-.034v56.342h.068c.305 1.512 1.622 2.65 3.214 2.694v.009h11.564v6.744c0 1.864 1.51 3.374 3.373 3.374 1.166 0 2.194-.592 2.8-1.492l8.627-8.627h43.98c1.634 0 2.995-1.161 3.306-2.703h.068v-56.341h-.034zm-60.067 33.726c-3.055 0-5.787-2.405-5.787-6.632 0-4.878 2.667-9.234 6.699-12.095l.014.012c.099-.05.206-.085.324-.085.164 0 .308.064.43.156l.008-.007 2.703 1.706-.016.015c.192.131.325.34.325.59 0 .277-.161.511-.39.633l.002.002-.046.028-.012.007c-2.065 1.124-4.26 3.726-4.839 6.046.26-.13.78-.195 1.301-.195 2.471 0 4.421 1.885 4.421 4.681.001 2.797-2.341 5.138-5.137 5.138zm13.233 0c-3.055 0-5.787-2.405-5.787-6.632 0-4.878 2.667-9.234 6.699-12.095l.014.012c.099-.05.206-.085.324-.085.164 0 .308.064.43.156l.008-.007 2.703 1.706-.016.015c.192.131.325.34.325.59 0 .277-.161.511-.39.633l.002.002-.046.028-.012.007c-2.065 1.124-4.26 3.726-4.839 6.046.26-.13.78-.195 1.301-.195 2.471 0 4.421 1.885 4.421 4.681 0 2.797-2.341 5.138-5.137 5.138zm15.824 7.187l-.014-.012c-.099.05-.206.085-.324.085-.164 0-.308-.064-.43-.156l-.008.007-2.703-1.706.016-.015c-.192-.131-.325-.34-.325-.59 0-.277.161-.511.39-.633l-.002-.002.046-.028.012-.007c2.065-1.124 4.26-3.726 4.839-6.046-.26.13-.78.195-1.301.195-2.471 0-4.421-1.885-4.421-4.681 0-2.797 2.342-5.137 5.138-5.137 3.055 0 5.787 2.405 5.787 6.632-.001 4.877-2.668 9.233-6.7 12.094zm13.233 0l-.014-.012c-.099.05-.206.085-.324.085-.164 0-.308-.064-.43-.156l-.008.007-2.703-1.706.016-.015c-.192-.131-.325-.34-.325-.59 0-.277.161-.511.39-.633l-.002-.002.046-.028.012-.007c2.065-1.124 4.26-3.726 4.839-6.046-.26.13-.78.195-1.301.195-2.471 0-4.421-1.885-4.421-4.681 0-2.797 2.342-5.137 5.138-5.137 3.055 0 5.787 2.405 5.787 6.632-.001 4.877-2.668 9.233-6.7 12.094z"/></svg>