<svg xmlns="http://www.w3.org/2000/svg" width="100" height="100"><path d="M80.761 17.26h-.019l.015-.145c0-2.893-2.346-5.245-5.241-5.245l-.116.012h-14.558v-3.404c0-.881-.714-1.593-1.593-1.595v-.008h-18.449v.006l-.043-.004c-.88 0-1.594.713-1.594 1.594l.003.03v3.38h-14.665l-.02-.002c-2.893 0-5.242 2.354-5.242 5.243l.014.137h-.014v70.572h.003l-.003.027c0 2.895 2.35 5.238 5.243 5.238l.229-.023v.021h50.5l.29.029c2.894 0 5.239-2.348 5.239-5.238l-.005-.055h.028v-70.57zm-9.939 65.925h-41.644v-61.376h4.997v3.069l-.01.097c0 .998.81 1.814 1.814 1.814l.014-.001v.008h28.027c1.005-.002 1.813-.816 1.813-1.813l-.004-.044v-3.13h4.992v61.376z"/></svg>