<svg xmlns="http://www.w3.org/2000/svg" width="100" height="100"><g fill-rule="evenodd" clip-rule="evenodd"><path d="M84.01 79.998c-.001-1.679-1.362-3.043-3.042-3.043h-61.935c-1.68 0-3.042 1.364-3.042 3.043v3.871c0 1.681 1.362 3.042 3.042 3.042h61.935c1.681 0 3.042-1.361 3.042-3.042v-3.871zM24.619 38.433l-.017-.017-.002.002c-.572-.491-1.306-.798-2.118-.798-1.779 0-3.219 1.424-3.26 3.193h-.08v29.238h.103c.155 1.659 1.536 2.965 3.237 2.965l.036-.004v.004h54.963v-.076l.037.004c1.675 0 3.041-1.268 3.229-2.893h.037v-28.631c.046-.219.073-.446.073-.679 0-1.803-1.463-3.266-3.267-3.266-.776 0-1.479.282-2.04.733l-.009-.009-.091.091c-.112.097-.215.201-.312.312l-6.881 6.881-15.852-15.852-.031.031c-.596-.633-1.435-1.033-2.373-1.033-.94 0-1.781.402-2.377 1.037l-.035-.035-15.887 15.885-6.766-6.767c-.099-.112-.204-.217-.317-.316zm48.354 8.394v.095h-.095l.095-.095z"/><circle cx="22.348" cy="27.13" r="6.042"/><circle cx="77.348" cy="27.13" r="6.042"/><circle cx="50.348" cy="19.13" r="6.042"/></g></svg>