<svg xmlns="http://www.w3.org/2000/svg" width="100" height="100"><path d="M87.969 43.045l-8.253-8.25c-.478-.481-1.26-.481-1.738 0l-22.583 22.58.045.045-.072-.02-3.091 11.534.009.002c-.14.425-.053.908.286 1.249.376.379.929.451 1.383.237l.002.009 11.415-3.059-.007-.027.019.019 22.584-22.583c.479-.477.479-1.26.001-1.736zm-31.934 23.652l1.836-6.846 5.012 5.012-6.848 1.834zM71.967 73.23h-7.485c-.68.003-1.225.548-1.228 1.229l.002.012v8.715h-41.644v-61.377h4.997v3.069l-.01.097c0 .998.81 1.814 1.814 1.814l.014-.001v.008h28.027c1.005-.002 1.813-.816 1.813-1.813l-.004-.044v-3.13h4.992v8.718l-.002.012c.002.682.546 1.227 1.228 1.229h7.485c.68-.003 1.225-.547 1.228-1.228v-13.28h-.019l.015-.145c0-2.893-2.346-5.245-5.241-5.245l-.116.012h-14.557v-3.404c0-.881-.714-1.593-1.593-1.595v-.008h-18.45v.006l-.043-.004c-.88 0-1.594.713-1.594 1.594l.003.03v3.38h-14.664l-.02-.002c-2.893 0-5.242 2.354-5.242 5.243l.014.137h-.014v70.572h.003l-.003.027c0 2.895 2.35 5.238 5.243 5.238l.229-.023v.021h50.5l.29.029c2.894 0 5.239-2.348 5.239-5.238l-.005-.055h.028v-13.372c-.004-.682-.548-1.226-1.23-1.228z"/></svg>