<svg xmlns="http://www.w3.org/2000/svg" width="100" height="100"><path d="M88.231 71.062h-7.264v-47.103h-.051l.021-.206c0-2.635-2.137-4.772-4.772-4.772h-47.175v-7.068c0-1.487-1.205-2.692-2.693-2.693h-4.571c-1.488 0-2.693 1.205-2.693 2.693v7.0680000000000005h-7.264c-1.487 0-2.692 1.205-2.693 2.693v4.571c0 1.488 1.205 2.693 2.693 2.693h7.264v47.103h.052l-.021.206c0 2.635 2.137 4.772 4.772 4.772h47.174v7.068c0 1.487 1.205 2.692 2.693 2.693h4.571c1.488 0 2.693-1.205 2.693-2.693v-7.068h7.264c1.487 0 2.692-1.205 2.693-2.693v-4.571c-.001-1.488-1.205-2.693-2.693-2.693zm-59.241.001v-42.126h42.02v42.125h-42.02z"/></svg>