<svg xmlns="http://www.w3.org/2000/svg" width="100" height="100"><path fill="#231F20" d="M81.615 28.882l-31.178-6.257c-.287-.059-.586-.059-.875 0l-31.176 6.257c-1.026.208-1.764 1.101-1.764 2.136v37.966c0 1.036.738 1.928 1.764 2.135l31.176 6.254c.289.062.588.062.875 0l31.178-6.254c1.025-.207 1.764-1.099 1.764-2.135v-37.966c0-1.035-.739-1.928-1.764-2.136zm-35.972 29.231c-2.142 4.72-5.503 7.108-9.991 7.108-7.493 0-12.525-6.117-12.525-15.219 0-9.107 5.033-15.225 12.525-15.225 4.462 0 7.803 2.264 9.936 6.729.191.396.21.854.055 1.265-.151.417-.467.75-.874.929l-3.621 1.616c-.827.368-1.815.006-2.191-.821-.54-1.172-1.552-2.576-3.305-2.576-2.774 0-4.709 3.324-4.709 8.084 0 4.758 1.935 8.08 4.709 8.08 1.986 0 2.942-1.953 3.263-2.792.159-.421.485-.764.904-.934.421-.182.894-.173 1.309.005l3.663 1.576c.407.172.725.5.885.912.161.408.148.861-.033 1.263zm31.083 0c-2.142 4.72-5.501 7.108-9.991 7.108-7.493 0-12.525-6.117-12.525-15.219 0-9.107 5.033-15.225 12.525-15.225 4.462 0 7.803 2.264 9.936 6.729.191.396.209.854.055 1.265-.151.417-.467.75-.874.929l-3.621 1.616c-.827.368-1.814.006-2.191-.821-.54-1.172-1.552-2.576-3.305-2.576-2.774 0-4.71 3.324-4.71 8.084 0 4.758 1.935 8.08 4.71 8.08 1.986 0 2.942-1.953 3.263-2.792.159-.421.486-.764.904-.934.421-.182.894-.173 1.309.005l3.663 1.576c.407.172.726.5.885.912.162.408.149.861-.033 1.263z"/></svg>