<svg xmlns="http://www.w3.org/2000/svg" width="100" height="100"><path d="M82.533 29.788h-.006c0-.323-.124-.646-.369-.894l.003-.003-9.764-9.764-.024.024c-.281-.23-.626-.318-.967-.272h-36.102l-.218-.022c-1.356 0-2.453 1.067-2.523 2.406h-.008v.082l-.005.048.005.048v36.498000000000005h.001l-.001.009c0 1.401 1.136 2.537 2.537 2.537l.136-.014h9.931c.15.244.334.453.536.637l.109.188v.109h.063l9.709 16.816.025-.014c.99 1.753 2.847 2.936 4.98 2.936 3.171 0 5.742-2.607 5.742-5.825h.058v-14.847h13.684v-.019c1.361-.04 2.452-1.145 2.461-2.513h.008v-28.151zM27.407 25.873v-.009c0-1.401-1.136-2.536-2.537-2.536l-.137.014h-4.798v.018c-1.361.04-2.452 1.145-2.461 2.513h-.008v27.502h.043c.12 1.257 1.147 2.243 2.426 2.287v.022h4.971c1.4 0 2.536-1.136 2.536-2.537l-.035-.35v-26.924z"/></svg>