<svg xmlns="http://www.w3.org/2000/svg" width="100" height="100"><path d="M93.681 30.128h-.045c0-2.135-1.73-3.866-3.865-3.865h-79.586c-2.135 0-3.866 1.731-3.866 3.865v39.745c0 2.135 1.731 3.865 3.866 3.865h79.586c2.135.001 3.866-1.73 3.865-3.864v-.001h.045v-39.745zm-14.977 5.346v-3.431c0-.438.354-.793.793-.793l.088.018v-.018h8.271v.006l.031-.006c.438 0 .793.355.793.793v8.417c0 .438-.356.793-.793.793l-.031-.006v.006h-3.37c-.439 0-.793-.355-.793-.793v-4.194h-4.107v-.018l-.088.018c-.44.001-.794-.354-.794-.792zm-57.408 29.052v3.431c0 .438-.354.793-.793.793l-.088-.018v.017h-8.271v-.006l-.031.006c-.438 0-.793-.355-.793-.793v-8.418c0-.438.356-.793.793-.793l.031.006v-.006h3.371c.439 0 .793.355.793.793v4.194h4.107v.018l.088-.018c.439.001.793.356.793.794zm.014-32.452v3.371c0 .438-.355.793-.793.793h-4.194v4.107h-.018l.018.088c0 .438-.355.793-.793.793h-3.43c-.438 0-.793-.354-.793-.793l.018-.088h-.017v-8.271h.006l-.006-.031c0-.438.355-.793.793-.793h8.418c.438 0 .793.355.793.793l-.006.031h.004zm28.69 36.676c-10.356 0-18.75-8.394-18.75-18.749 0-10.354 8.394-18.751 18.75-18.751s18.75 8.396 18.75 18.751-8.394 18.749-18.75 18.749zm38.693-9.094v8.271h-.006l.006.031c0 .438-.355.793-.793.793h-8.418c-.438 0-.793-.356-.793-.793l.006-.031h-.006v-3.371c0-.438.355-.793.793-.793h4.194v-4.107h.018l-.018-.088c0-.438.355-.793.793-.793h3.431c.438 0 .793.354.793.793l-.018.088h.018zM50 36.22c-7.599 0-13.78 6.184-13.78 13.781 0 2.91.912 5.607 2.457 7.834v-.096c0-.617.322-1.169.812-1.398l5.64-2.627 2.212-1.03c-.999-.602-1.82-1.537-2.374-2.673-.479-.978-.761-2.103-.761-3.31 0-.694.116-1.351.284-1.981.729-2.749 2.906-4.76 5.509-4.76 2.653 0 4.863 2.085 5.55 4.915.141.584.242 1.189.242 1.826 0 1.136-.253 2.197-.679 3.136-.536 1.182-1.355 2.163-2.364 2.799l2.31 1.102 5.462 2.605c.485.234.802.782.802 1.396v.095c1.545-2.227 2.457-4.924 2.457-7.834.001-7.597-6.18-13.78-13.779-13.78z"/></svg>