<svg xmlns="http://www.w3.org/2000/svg" width="100" height="100"><path d="M83.921 23.292c-.092-3.956-3.264-7.145-7.213-7.264v-.011h-53.416v.008c-3.974.092-7.174 3.293-7.267 7.267h-.009v53.416h.009c.091 3.974 3.292 7.175 7.267 7.267v.008h53.416v-.009c3.975-.092 7.176-3.292 7.267-7.267h.009v-53.415h-.063zm-50.931 50.384c-3.885 0-7.034-3.148-7.034-7.034 0-3.885 3.15-7.035 7.034-7.035 3.885 0 7.035 3.15 7.035 7.035 0 3.885-3.15 7.034-7.035 7.034zm0-33.606c-3.885 0-7.034-3.148-7.034-7.034 0-3.885 3.15-7.035 7.034-7.035 3.885 0 7.035 3.15 7.035 7.035 0 3.885-3.15 7.034-7.035 7.034zm17.01 16.965c-3.885 0-7.034-3.148-7.034-7.034 0-3.885 3.149-7.035 7.034-7.035s7.035 3.15 7.035 7.035c-.001 3.885-3.15 7.034-7.035 7.034zm17.009 16.944c-3.885 0-7.034-3.148-7.034-7.033 0-3.887 3.149-7.036 7.034-7.036s7.035 3.149 7.035 7.036c0 3.884-3.15 7.033-7.035 7.033zm0-33.909c-3.885 0-7.034-3.148-7.034-7.033 0-3.887 3.149-7.036 7.034-7.036s7.035 3.149 7.035 7.036c0 3.884-3.15 7.033-7.035 7.033z"/></svg>