<svg xmlns="http://www.w3.org/2000/svg" width="100" height="100"><path d="M15.194 59.995l69.732-.074v-.014c1.316-.073 2.363-1.155 2.361-2.489-.001-.722-.312-1.367-.802-1.823l-34.651-34.575-.004.004c-.459-.542-1.136-.892-1.902-.892-.833.001-1.566.414-2.02 1.041l-34.46 34.535c-.466.455-.757 1.087-.756 1.79.001 1.381 1.121 2.499 2.502 2.497zM87.308 77.253l-.01-9.803v-.05h-.005c-.029-1.378-1.15-2.486-2.534-2.485v-.006l-69.751.074v.042c-1.286.125-2.295 1.198-2.293 2.516l.01.096.01 9.477-.022.22c.001 1.322 1.018 2.395 2.311 2.511v.023l69.751-.074c1.401-.001 2.535-1.138 2.534-2.539l-.001-.002z"/></svg>