<svg xmlns="http://www.w3.org/2000/svg" width="100" height="100"><g fill="#231F20"><path d="M77.741 10.79h-73.381c-1.391.001-2.519 1.129-2.519 2.521v73.379c0 1.391 1.128 2.52 2.519 2.521h73.381c1.393 0 2.521-1.129 2.521-2.521v-73.379c0-1.393-1.128-2.521-2.521-2.521zm-65.879 10.019h58.381v58.381h-58.381v-58.381zM97.524 63.966h-2.882v-7.737c0-.33-.266-.596-.595-.596h-5.333c-.329 0-.595.266-.595.596v7.736h-2.883c-.223.001-.427.126-.529.324-.103.197-.085.437.045.618l6.164 8.616c.111.156.292.248.483.248h.001c.193 0 .373-.094.484-.25l6.125-8.615c.129-.182.146-.421.043-.619-.1-.197-.305-.322-.528-.321zM85.276 36.035h2.882v7.737c0 .329.267.595.596.596l5.333-.001c.329 0 .596-.266.595-.595v-7.737h2.883c.223 0 .427-.125.529-.323s.085-.438-.045-.618l-6.164-8.615c-.112-.157-.292-.25-.483-.25h-.001c-.193.002-.373.094-.485.252l-6.124 8.614c-.129.181-.146.42-.044.618.1.197.305.322.528.322z"/><circle cx="27.998" cy="31.993" r="4.955"/><path d="M37.38 38.28v-.024h-17.752v.017c-1.283 0-2.323 1.036-2.332 2.316h-.002v14.04h.023c-.001.535.202 1.07.61 1.478.813.814 2.133.814 2.947 0 .407-.408.61-.943.609-1.478h.005v-9.802h.006c.015-.354.302-.638.66-.638.358 0 .646.283.661.638h.006v25.701c.002 1.345 1.091 2.434 2.437 2.434 1.345 0 2.437-1.091 2.437-2.437v-12.941h.018c0-.373.302-.675.675-.675s.675.302.675.675h.017v12.941c0 1.346 1.092 2.437 2.437 2.437 1.346 0 2.437-1.091 2.437-2.437v-25.697000000000003c0-.369.298-.667.666-.667.367 0 .665.298.665.667v9.802h.023c-.001.535.202 1.07.61 1.478.814.814 2.133.814 2.947 0 .408-.408.611-.943.61-1.478h.004v-14.04c-.002-1.207-.923-2.189-2.099-2.31z"/><circle cx="53.331" cy="31.993" r="4.955"/><path d="M62.713 38.28v-.024h-17.752v.017c-1.283 0-2.323 1.036-2.332 2.316h-.002v14.04h.023c-.001.535.202 1.07.61 1.478.813.814 2.133.814 2.947 0 .407-.408.61-.943.609-1.478h.005v-9.802h.006c.015-.354.302-.638.66-.638.358 0 .646.283.661.638h.006v25.701c.002 1.345 1.091 2.434 2.437 2.434 1.345 0 2.437-1.091 2.437-2.437v-12.941h.018c0-.373.302-.675.675-.675s.675.302.675.675h.017v12.941c0 1.346 1.092 2.437 2.437 2.437 1.346 0 2.437-1.091 2.437-2.437v-25.697000000000003c0-.369.298-.667.666-.667.367 0 .665.298.665.667v9.802h.023c-.001.535.202 1.07.61 1.478.814.814 2.133.814 2.947 0 .408-.408.611-.943.61-1.478h.004v-14.04c-.003-1.207-.923-2.189-2.099-2.31z"/></g></svg>