<svg xmlns="http://www.w3.org/2000/svg" width="100" height="100"><path d="M77.024 63.084l-.09-.03.005-.012-7.807-3.746-.002.016c-.532-.238-1.166-.056-1.464.46l-.047.141c-2.274 4.302-7.07 7.714-12.505 7.714-6.761 0-12.154-3.461-14.891-8.934h19.604l.073.015c.637 0 1.153-.516 1.153-1.153v-4.062c0-.622-.494-1.12-1.11-1.145v-.014h-21.65c-.081-.725-.081-1.529-.081-2.334 0-.885 0-1.689.161-2.576h21.513l.015.003.015-.003h.029v-.006c.616-.024 1.11-.523 1.11-1.145v-4.062c0-.637-.516-1.153-1.153-1.153l-.044.009h-19.553c2.817-5.312 8.21-8.693 14.81-8.693 5.474 0 10.303 3.461 12.557 7.807l.011-.005c.303.5.923.677 1.448.442l.002.016 7.807-3.746-.005-.012.09-.03c.523-.302.705-.949.452-1.486l.015-.007-.041-.069-.005-.013-.01-.012c-3.794-6.728-10.623-13.029-22.321-13.029-13.12 0-23.744 7.324-27.366 18.836h-4.142l-.044-.009c-.637 0-1.153.516-1.153 1.153v4.062c0 .637.516 1.153 1.153 1.153l.015-.003h2.964c-.081.887-.081 1.691-.081 2.576 0 .805 0 1.609.081 2.334h-2.978v.005c-.637 0-1.153.516-1.153 1.153v4.062c0 .637.516 1.153 1.153 1.153l.073-.015h4.032c3.541 11.673 14.246 19.08 27.446 19.08 11.679 0 18.505-6.44 22.303-13.078l.028-.032.012-.035.034-.056-.013-.006c.248-.536.066-1.178-.455-1.479z"/></svg>