<svg xmlns="http://www.w3.org/2000/svg" width="100" height="100"><g fill="#231F20"><circle cx="49.244" cy="20.203" r="8.2"/><path d="M72.147 54.101l-5.47-20.414-.013-.047-.096-.359-.014.004c-.499-1.556-1.94-2.69-3.662-2.69l-.039.004v-.071h-25.745v.067c-1.722 0-3.163 1.134-3.662 2.69l-.014-.004-.096.358-.013.049-5.47 20.413.052.014c-.025.169-.052.337-.052.513 0 1.924 1.56 3.485 3.485 3.485 1.474 0 2.727-.919 3.236-2.212l.024.006 4.013-14.974v.057h.031c.11-.493.529-.869 1.054-.869.526 0 .945.377 1.055.869h.033v.161l.014.071-.014.071v.153l-6.424 23.978c-.104.211-.167.442-.184.688l-.014.051.008.002-.008.081c0 1.033.838 1.87 1.871 1.87h4.751v15.849c0 2.226 1.805 4.032 4.032 4.032 2.227 0 4.032-1.805 4.032-4.032v-15.849h2.293v15.849c0 2.226 1.806 4.032 4.033 4.032 2.227 0 4.032-1.805 4.032-4.032v-15.849h4.765c1.033 0 1.871-.837 1.871-1.87l-.008-.081.008-.002-.014-.051c-.018-.246-.081-.477-.184-.688l-6.404-23.904.021-.006c-.027-.095-.059-.188-.059-.291 0-.608.493-1.102 1.102-1.102.518 0 .932.365 1.05.847l.042-.011 4.006 14.951.024-.006c.509 1.293 1.762 2.212 3.236 2.212 1.925 0 3.485-1.561 3.485-3.485 0-.176-.027-.344-.052-.513l.052-.015z"/></g></svg>