<svg xmlns="http://www.w3.org/2000/svg" width="100" height="100"><path d="M69.499 52.139c-1.84 0-3.336 1.495-3.336 3.332v2.921h6.672v-2.941h-.001l.001-.011c-.018-1.823-1.507-3.301-3.336-3.301zM86.016 24.091h-36.703c-1.979-2.37-4.013-4.865-4.54-5.624-.511-1.071-1.608-1.808-2.874-1.808h-14.532c-.963 0-1.875.435-2.478 1.185l-5.021 6.247h-5.885c-3.021 0-5.484 2.46-5.484 5.484v48.284c0 3.024 2.463 5.482 5.484 5.482h72.032c3.021 0 5.484-2.458 5.484-5.482v-48.284c.001-3.025-2.463-5.484-5.483-5.484zm-4.473 48.397c0 .497-.401.897-.898.897h-21.975c-.496 0-.897-.4-.897-.897v-13.199c0-.496.401-.897.897-.897h2.713v-2.921c0-4.473 3.64-8.114 8.115-8.114 4.476 0 8.116 3.641 8.116 8.114l-.001.037v2.884h3.0309999999999997c.496 0 .898.401.898.897v13.199z"/></svg>