<svg xmlns="http://www.w3.org/2000/svg" width="100" height="100"><path fill="#231F20" d="M68.507 55.658c10.221-10.221 10.221-26.793 0-37.016-10.222-10.221-26.793-10.221-37.015 0-10.222 10.223-10.222 26.795 0 37.016 3.807 3.807 8.495 6.193 13.408 7.165v8.09h-5.299c-.395 0-.791.151-1.092.453-.301.302-.452.697-.452 1.092v6.886c0 .852.692 1.543 1.544 1.544h5.2989999999999995v6.592c0 .753.54 1.379 1.254 1.515v.029h7.1770000000000005c.852 0 1.544-.691 1.544-1.544h.001v-6.592h5.523c.853 0 1.544-.691 1.544-1.544v-6.886c0-.395-.151-.791-.452-1.092-.302-.302-.697-.453-1.092-.453h-5.522v-8.048c4.993-.942 9.766-3.343 13.63-7.207zm-18.507-2.309c-8.946 0-16.199-7.252-16.198-16.198 0-8.946 7.252-16.199 16.199-16.199 8.946 0 16.199 7.252 16.198 16.198-.001 8.946-7.253 16.199-16.199 16.199z"/></svg>