<svg xmlns="http://www.w3.org/2000/svg" width="100" height="100"><g fill="#231F20"><path d="M78.682 76.043l-2.949-1.574c-.217-.116-.484-.035-.598.181l-1.189 2.215c-.055.104-.067.227-.034.338.036.112.113.206.215.263l2.951 1.571c.066.036.138.053.207.053.159 0 .311-.085.391-.234l1.189-2.214c.055-.104.066-.224.034-.337-.036-.113-.112-.209-.217-.262zM78.76 23.487l-2.983-1.747c-.213-.125-.483-.053-.604.155l-1.277 2.167c-.061.101-.077.22-.049.334.031.115.105.213.206.271l2.983 1.745c.07.041.147.06.224.06.152 0 .298-.076.381-.216l1.276-2.166c.06-.101.078-.223.048-.334-.03-.114-.105-.209-.205-.269zM72.785 72.897l-3.344-1.809v-49.124l1.628.957c.069.039.147.06.223.06.151 0 .296-.08.381-.219l1.276-2.166c.062-.102.078-.221.049-.335-.031-.114-.104-.212-.206-.272l-1.216-.712-1.373-.945c-.614-.332-1.331-.211-1.819.228l-12.062 6.551-12.194-6.621h-.005l-.087-.051c-.136-.062-.288-.059-.434-.089-.136-.027-.261-.081-.401-.081-.141 0-.264.054-.401.082-.143.029-.295.025-.426.088l-.07.042-.023.009-12.193 6.621-12.194-6.621c-.539-.292-1.206-.309-1.755-.051-.552.262-.893.757-.893 1.294v53.523c0 .504.3.975.797 1.245l13.118 7.126.014.005.083.045c.254.12.541.181.829.181.287 0 .575-.06.831-.181l.067-.043.027-.007 12.191-6.625 12.191 6.625.017.005.079.045c.256.12.544.181.831.181.289 0 .577-.06.831-.181l.068-.043.028-.007 12.13-6.591.949.404.85.452c.067.037.139.051.208.051.158 0 .312-.082.391-.23l1.189-2.216c.114-.215.034-.483-.18-.6zm-42.74 5.694l-11.351-6.146v-50.025l11.351 6.146v50.025zm26.236-.072l-13.078-7.086v-49.994l13.078 7.119v49.961zM84.312 56.317h-2.521c-.242 0-.44.198-.44.442v5.255c0 .243.198.44.44.44h2.521c.244 0 .442-.197.442-.44v-5.255c-.001-.244-.198-.442-.442-.442zM84.312 77.338h-2.521c-.079 0-.157.023-.225.064l-.37.221c-.068.043-.125.101-.162.17l-1.189 2.217c-.055.104-.066.227-.032.338.034.113.112.207.215.262l1.556.828c.416.223.883.346 1.313.346.898 0 1.855-.538 1.855-2.051v-1.953c.001-.242-.196-.442-.44-.442zM83.464 26.242l-1.722-1.011c-.212-.122-.481-.053-.605.159l-1.276 2.164c-.06.1-.078.222-.047.334.027.114.102.213.204.271l1.333.778v1.541c0 .243.198.441.44.441h2.521c.244 0 .442-.198.442-.441v-1.877c-.001-1.57-1.235-2.326-1.29-2.359zM84.312 35.293h-2.521c-.242 0-.44.199-.44.443v5.256c0 .244.198.442.44.442h2.521c.244 0 .442-.198.442-.442v-5.256c-.001-.244-.198-.443-.442-.443zM84.312 66.83h-2.521c-.242 0-.44.197-.44.44v5.257c0 .244.198.442.44.442h2.521c.244 0 .442-.198.442-.442v-5.257c-.001-.243-.198-.44-.442-.44zM84.312 45.805h-2.521c-.242 0-.44.198-.44.442v5.255c0 .243.198.442.44.442h2.521c.244 0 .442-.199.442-.442v-5.255c-.001-.243-.198-.442-.442-.442z"/></g></svg>