<svg xmlns="http://www.w3.org/2000/svg" width="100" height="100"><path d="M86.016 24.091h-36.703c-1.979-2.37-4.013-4.865-4.541-5.624-.511-1.071-1.607-1.808-2.875-1.808h-14.53c-.964 0-1.875.435-2.479 1.185l-5.021 6.247h-5.884c-3.021 0-5.484 2.46-5.484 5.484v48.284c0 3.024 2.463 5.482 5.484 5.482h72.032c3.021 0 5.484-2.458 5.484-5.482v-48.284c.001-3.025-2.463-5.484-5.483-5.484zm-4.473 39.195c0 .182-.074.346-.195.465-.119.12-.283.194-.464.194h-8.779v8.78c0 .174-.07.341-.193.466-.124.122-.291.193-.465.193h-6.15c-.175 0-.342-.07-.466-.193-.124-.125-.192-.292-.192-.466v-8.78h-8.78c-.174 0-.342-.07-.465-.194-.124-.123-.193-.29-.193-.465v-6.149c.001-.351.309-.659.658-.659h8.779v-8.78c0-.363.294-.658.659-.658l6.15.001c.364 0 .659.293.659.658v8.778h8.78c.364 0 .659.294.659.659l-.002 6.15z"/></svg>