<svg xmlns="http://www.w3.org/2000/svg" width="100" height="100"><path d="M29.365 27.367h6.146v-5.15h28.776v5.258h6.145v-9.045h-.002c-.012-1.36-1.115-2.462-2.477-2.466h-36.114000000000004c-1.374 0-2.487 1.115-2.487 2.488l.013.131v8.784zM24.772 84.037h50.436v-51.199h-50.436v51.199zm9.985-29.186c0-.408.361-.768.768-.768l10.235.001v-10.235c0-.424.344-.768.768-.768h7.17c.424 0 .768.344.768.769v10.234h10.236c.424 0 .768.344.768.768v7.17c0 .212-.086.404-.225.543s-.331.225-.543.225h-10.236v10.236c0 .204-.081.399-.224.542-.144.144-.34.226-.544.226h-7.169c-.204 0-.399-.081-.543-.225-.144-.144-.225-.339-.225-.543v-10.237h-10.236c-.204 0-.399-.081-.543-.225-.144-.144-.225-.339-.225-.543v-7.17zM13.835 32.839c-2.207 0-3.998 1.787-3.998 3.996l.016.154v42.94l-.01.102c0 2.203 1.789 3.995 3.993 3.998v.008h5.959v-51.199l-5.96.001zM90.16 80.006v-43.192h-.019c-.012-2.195-1.795-3.977-3.995-3.977h-5.959v51.199h5.943v-.003l.035.003c2.208 0 3.998-1.789 3.998-3.998l-.003-.032z"/></svg>