<svg xmlns="http://www.w3.org/2000/svg" width="100" height="100"><path d="M54.193 12.87c-.731 0-1.325.594-1.325 1.326l.039.193h-.039v31.438c0 .732.594 1.326 1.325 1.326h31.437v-.039l.194.039c.731 0 1.325-.594 1.325-1.326-.188-18.12-14.836-32.768-32.956-32.957zM79.485 53.46c0-.732-.593-1.326-1.325-1.326h-28.899c-.732 0-1.325-.594-1.325-1.326v-28.793h-.039l.039-.193c0-.733-.594-1.326-1.326-1.326l-.089.018v-.009l-.353-.009c-18.4 0-33.317 14.917-33.317 33.317s14.917 33.317 33.317 33.317 33.317-14.917 33.317-33.317l-.007-.318.007-.035z"/></svg>