<svg xmlns="http://www.w3.org/2000/svg" width="100" height="100"><path d="M46.05 60.163h-14.127c-.836 0-1.513.677-1.513 1.513v21.934c0 .836.677 1.513 1.513 1.513h14.127c.836 0 1.512-.677 1.512-1.513v-21.935c0-.836-.677-1.512-1.512-1.512zM68.077 14.878h-14.127c-.836 0-1.513.677-1.513 1.513v67.218c0 .836.677 1.513 1.513 1.513h14.127c.836 0 1.513-.677 1.513-1.513v-67.218c0-.836-.677-1.513-1.513-1.513zM90.217 35.299h-14.127c-.836 0-1.513.677-1.513 1.513v46.797c0 .836.677 1.513 1.513 1.513h14.126c.836 0 1.513-.677 1.513-1.513v-46.797c0-.835-.677-1.513-1.512-1.513zM23.91 35.299h-14.127c-.836 0-1.513.677-1.513 1.513v46.797c0 .836.677 1.513 1.513 1.513h14.127c.836 0 1.513-.677 1.513-1.513v-46.797c0-.835-.677-1.513-1.513-1.513z"/></svg>