<svg xmlns="http://www.w3.org/2000/svg" width="100" height="100"><path fill="#231F20" d="M50 12.5c-20.712 0-37.5 16.793-37.5 37.502 0 20.71 16.788 37.498 37.5 37.498s37.5-16.788 37.5-37.498c0-20.709-16.788-37.502-37.5-37.502zm3.826 58.36c0 .72-.584 1.304-1.304 1.304h-5.044c-.72 0-1.304-.583-1.304-1.304v-24.218c0-.72.584-1.304 1.304-1.304h5.044c.72 0 1.304.583 1.304 1.304v24.218zm-3.857-30.927c-2.47 0-4.518-2.048-4.518-4.579 0-2.53 2.048-4.518 4.518-4.518 2.531 0 4.579 1.987 4.579 4.518.001 2.531-2.048 4.579-4.579 4.579z"/></svg>