<svg xmlns="http://www.w3.org/2000/svg" width="100" height="100"><path d="M93.481 44.925c-.042-.42-.216-.83-.538-1.152-.372-.371-.858-.557-1.344-.557h-39.471c-2.601-9.968-11.654-17.354-22.426-17.354-12.795 0-23.202 10.407-23.202 23.202 0 12.798 10.407 23.202 23.202 23.202 11.445 0 20.953-8.332 22.84-19.242h8.79v12.517h.014c.072.981.884 1.758 1.886 1.758l.075-.007v.011h6.1v-.003c1.002.001 1.814-.776 1.886-1.758h.016v-12.517h4.979v19.352999999999998h.015c.075.982.885 1.758 1.887 1.76l.021-.002h6.112l.021.002c1.001-.002 1.812-.778 1.887-1.76h.015v-19.354h5.355v-.002c.486 0 .972-.186 1.344-.558.37-.372.555-.857.556-1.343h-.001v-6.197h-.019zm-63.779 17.607c-7.338 0-13.308-5.974-13.308-13.311 0-7.338 5.97-13.311 13.308-13.311 7.337 0 13.304 5.973 13.304 13.311.001 7.338-5.967 13.311-13.304 13.311z"/></svg>