<svg xmlns="http://www.w3.org/2000/svg" width="100" height="100"><path d="M17.563 30.277h.012c0 1.245 1.004 2.254 2.246 2.267v.002h60.359v-.001c1.248-.006 2.259-1.018 2.259-2.268h.01v-10.459c-.002-1.251-1.017-2.265-2.269-2.265h-60.359c-1.253 0-2.269 1.017-2.269 2.269l.012.115-.001 10.34zM80.179 42.504h-60.358c-1.253 0-2.269 1.017-2.269 2.269l.012.115v10.34h.012c0 1.245 1.004 2.254 2.246 2.267v.002h60.359v-.001c1.248-.006 2.259-1.018 2.259-2.268h.01v-10.459c-.004-1.251-1.019-2.265-2.271-2.265zM80.179 67.454h-60.358c-1.253 0-2.269 1.017-2.269 2.269l.012.115v10.34h.012c0 1.245 1.004 2.254 2.246 2.267v.002h60.359v-.001c1.248-.006 2.259-1.019 2.259-2.269h.01v-10.459c-.004-1.25-1.019-2.264-2.271-2.264z"/></svg>