<svg xmlns="http://www.w3.org/2000/svg" width="100" height="100"><path d="M83.729 23.57c-.007-.562-.32-1.084-.825-1.337-.503-.259-1.107-.212-1.568.114l-5.944 4.262-.468.336c-6.405-6.391-15.196-10.389-24.938-10.389-13.284 0-24.878 7.354-30.941 18.201l.024.013c-.548 1.183-.124 2.607 1.026 3.271l.002.001 8.136 4.697c1.218.704 2.777.287 3.48-.932l.015-.034c3.591-6.404 10.438-10.747 18.289-10.747 4.879 0 9.352 1.696 12.914 4.5l-1.001.719-5.948 4.262c-.455.327-.696.89-.611 1.447.081.558.471 1.028 1.008 1.208l25.447 8.669c.461.162.966.084 1.367-.203.399-.29.629-.746.627-1.23l-.091-26.828zM79.904 61.958l-.002-.001-8.136-4.697c-1.218-.704-2.777-.287-3.48.932l-.015.034c-3.591 6.404-10.438 10.747-18.289 10.747-4.879 0-9.352-1.696-12.914-4.5l1.001-.719 5.948-4.262c.455-.327.696-.89.611-1.447-.081-.558-.471-1.028-1.008-1.208l-25.447-8.669c-.461-.162-.966-.084-1.367.203-.399.29-.629.746-.627 1.23l.092 26.828c.007.562.32 1.084.825 1.337.503.259 1.107.212 1.568-.114l5.944-4.262.468-.336c6.405 6.391 15.196 10.389 24.938 10.389 13.284 0 24.878-7.354 30.941-18.201l-.025-.012c.548-1.184.125-2.607-1.026-3.272z"/></svg>