<svg xmlns="http://www.w3.org/2000/svg" width="100" height="100"><g fill="#231F20"><path d="M14.022 67.699h71.957c2.747 0 4.976-2.229 4.976-4.977v-44.094c0-2.75-2.229-4.976-4.976-4.976h-71.957c-2.747 0-4.976 2.226-4.976 4.976v44.094c-.001 2.748 2.228 4.977 4.976 4.977zm4.976-44.095h62.005v34.142h-62.005v-34.142zM95.325 72.686h-90.65c-1.267 0-2.294 1.027-2.294 2.294v5.555c0 .58.218 1.135.609 1.559l3.25 3.518c.433.466 1.045.735 1.684.735h83.915c.612 0 1.198-.245 1.631-.681l3.485-3.519c.424-.43.664-1.01.664-1.613v-5.554c0-1.266-1.028-2.294-2.294-2.294zm-36.656 7.969c0 .28-.185.507-.415.507h-16.508c-.23 0-.415-.227-.415-.507v-2.264c0-.28.185-.504.415-.504h16.508c.23 0 .415.224.415.504v2.264z"/></g></svg>