<svg xmlns="http://www.w3.org/2000/svg" width="100" height="100"><path d="M78.663 21.338c-7.552-7.552-19.648-7.79-27.486-.713l-.019-.019-10.098 10.097c-1.831 1.831-3.216 3.936-4.187 6.176-1.937.841-3.775 1.983-5.419 3.468l-.019-.019-10.097 10.097c-7.797 7.797-7.797 20.439 0 28.237 7.797 7.798 20.439 7.798 28.237 0l10.098-10.098-.019-.019c1.484-1.644 2.627-3.482 3.467-5.419 2.24-.971 4.345-2.356 6.176-4.187l10.098-10.098-.019-.019c7.076-7.837 6.838-19.933-.713-27.484zm-35.902 50.149l-.001.001c-3.935 3.935-10.314 3.935-14.248 0-3.935-3.935-3.935-10.314 0-14.248l.001-.001 7.367-7.367c.865 3.321 2.579 6.466 5.18 9.068 2.602 2.602 5.747 4.315 9.067 5.181l-7.366 7.366zm5.473-19.721c-1.796-1.796-2.763-4.102-2.919-6.452 2.35.156 4.655 1.123 6.452 2.919 1.796 1.796 2.764 4.102 2.919 6.452-2.35-.157-4.656-1.123-6.452-2.919zm23.875-9.627l-.619.619-.001.001h-.001l-7.369 7.369c-.865-3.321-2.578-6.466-5.179-9.068-2.602-2.602-5.748-4.314-9.069-5.18l7.369-7.369.001-.001.001-.001.619-.619.029.028c3.959-3.329 9.874-3.134 13.6.591s3.921 9.642.591 13.6l.028.03z"/></svg>