<svg xmlns="http://www.w3.org/2000/svg" width="100" height="100"><polygon points="14.427,22.495 14.427,30.242 16.7,30.242 16.7,19.566 14.715,19.566 11.354,22.943 12.65,24.304"/><path d="M12.828 46.423c.88 0 1.729.448 1.729 1.393 0 1.312-1.28 2.401-5.65 5.634v1.793h8.035v-2.001h-4.354c2.77-2.017 4.274-3.601 4.274-5.426 0-2.129-1.792-3.41-4.082-3.41-1.489 0-3.073.544-4.114 1.745l1.296 1.505c.721-.753 1.649-1.233 2.866-1.233zM14.604 74.736c1.184-.208 2.337-1.088 2.337-2.433 0-1.776-1.537-2.897-4.034-2.897-1.873 0-3.217.72-4.082 1.697l1.136 1.424c.752-.72 1.681-1.104 2.721-1.104 1.104 0 1.985.416 1.985 1.264 0 .785-.8 1.137-1.985 1.137-.4 0-1.137 0-1.329-.016v2.049c.16-.016.88-.032 1.329-.032 1.489 0 2.145.384 2.145 1.233 0 .8-.721 1.36-2.017 1.36-1.041 0-2.209-.448-2.929-1.216l-1.2 1.521c.784.96 2.257 1.712 4.209 1.712 2.561 0 4.21-1.296 4.21-3.137.002-1.602-1.407-2.45-2.496-2.562zM87.926 19.889h-62.464c-1.882 0-3.407 1.525-3.407 3.407v3.143c0 1.881 1.525 3.407 3.407 3.407h62.463c1.881 0 3.407-1.525 3.407-3.407v-3.143c.001-1.881-1.525-3.407-3.406-3.407zM87.926 44.781h-62.464c-1.882 0-3.407 1.525-3.407 3.407v3.143c0 1.881 1.525 3.407 3.407 3.407h62.463c1.881 0 3.407-1.525 3.407-3.407v-3.143c.001-1.882-1.525-3.407-3.406-3.407zM87.926 69.673h-62.464c-1.882 0-3.407 1.525-3.407 3.407v3.143c0 1.881 1.525 3.407 3.407 3.407h62.463c1.881 0 3.407-1.525 3.407-3.407v-3.143c.001-1.882-1.525-3.407-3.406-3.407z"/></svg>