<svg xmlns="http://www.w3.org/2000/svg" width="100" height="100"><path d="M80.302 18.915l.042-.042-.008-.008c.523-.57.518-1.451-.033-2.003l-2.053-2.053c-.552-.551-1.433-.556-2.003-.033l-.009-.009-8.842 8.843c-.567.566-.567 1.486 0 2.053l2.053 2.054h.001c.567.567 1.486.567 2.053 0l8.799-8.802zM48.548 19.274v.001h2.903v-.001c.782 0 1.415-.619 1.446-1.393h.006v-12.503c0-.802-.65-1.452-1.452-1.452v-.002h-2.903v.001c-.802 0-1.452.65-1.452 1.452v12.504h.006c.032.774.664 1.393 1.446 1.393zM91.613 39.997c0-.783-.619-1.415-1.393-1.446v-.006h-12.504c-.802 0-1.452.649-1.452 1.452v2.903c0 .803.65 1.453 1.452 1.453h12.504v-.006c.774-.032 1.393-.665 1.393-1.447v-2.903zM50 24.201c-11.756 0-21.285 9.529-21.285 21.285 0 4.608 1.479 8.862 3.968 12.346h-.008c3.174 4.952 5.157 11.512 5.303 18.739.255.419.711.703 1.237.703l.163-.017v.017h21.172v-.017l.162.017c.575 0 1.067-.337 1.303-.822.175-7.584 2.371-14.429 5.843-19.439 2.154-3.324 3.427-7.27 3.427-11.526 0-11.757-9.529-21.286-21.285-21.286zM60.712 89.788l-.162.017v-.017h-21.172v.017l-.163-.017c-.801 0-1.452.649-1.452 1.452v3.384c0 .802.65 1.452 1.452 1.452l.163-.017v.017h21.172v-.016l.162.016c.802 0 1.452-.65 1.452-1.452v-3.384c0-.803-.65-1.452-1.452-1.452zM60.712 80.348l-.162.017v-.017h-21.172v.017l-.163-.017c-.784 0-1.42.624-1.447 1.403l-.005.057v3.376c0 .802.65 1.452 1.452 1.452l.163-.017v.017h21.172v-.016l.162.017c.802 0 1.452-.65 1.452-1.452v-3.385c0-.803-.65-1.452-1.452-1.452zM22.344 39.685v-.006h-12.505c-.802 0-1.452.65-1.452 1.451v2.904c0 .801.65 1.451 1.452 1.451h12.505v-.005c.773-.032 1.393-.665 1.393-1.445v-2.905c-.001-.78-.62-1.413-1.393-1.445zM20.199 18.415l8.842 8.843.009-.009c.569.523 1.45.519 2.002-.033h.001l2.053-2.054c.552-.552.556-1.434.033-2.003l.009-.009-8.843-8.842c-.566-.566-1.486-.566-2.053 0l-2.053 2.053c-.567.568-.567 1.487 0 2.054z"/></svg>