<svg xmlns="http://www.w3.org/2000/svg" width="100" height="100"><path d="M80.182 67.457l-35.4-.001v.001l-.009-.001c-1.253 0-2.269 1.017-2.269 2.269l.012.121v10.334h.011c0 1.248 1.008 2.26 2.254 2.268v.001h35.4v-.002c1.246-.008 2.254-1.02 2.254-2.268v-10.354l.01-.101c.001-1.25-1.012-2.264-2.263-2.267zM30.278 67.454h-10.456c-1.253 0-2.269 1.017-2.269 2.269v10.454c0 1.253 1.016 2.269 2.268 2.269h10.455c1.253 0 2.269-1.016 2.269-2.269v-10.454c.002-1.252-1.014-2.269-2.267-2.269zM80.182 42.467l-35.4-.001v.001l-.009-.001c-1.253 0-2.269 1.017-2.269 2.269l.012.121v10.334h.011c0 1.248 1.008 2.26 2.254 2.268v.001h35.4v-.002c1.246-.008 2.254-1.02 2.254-2.268v-10.354l.01-.101c.001-1.25-1.012-2.264-2.263-2.267zM30.278 42.464h-10.456c-1.253 0-2.269 1.017-2.269 2.269v10.454c0 1.253 1.016 2.269 2.268 2.269h10.455c1.253 0 2.269-1.016 2.269-2.269v-10.454c.002-1.252-1.014-2.269-2.267-2.269zM42.516 30.276h.011c0 1.248 1.008 2.26 2.254 2.268v.001h35.4v-.002c1.246-.008 2.254-1.02 2.254-2.268v-10.354l.01-.101c0-1.251-1.013-2.265-2.264-2.268v-.001h-35.4v.001l-.009-.001c-1.253 0-2.269 1.017-2.269 2.269l.012.121v10.335zM30.278 17.551h-10.456c-1.253 0-2.269 1.017-2.269 2.269v10.454c0 1.253 1.016 2.269 2.268 2.269h10.455c1.253 0 2.269-1.016 2.269-2.269v-10.454c.002-1.253-1.014-2.269-2.267-2.269z"/></svg>