<svg xmlns="http://www.w3.org/2000/svg" width="100" height="100"><path d="M82.488 74.334l-.035-.35v-26.924h-.001l.001-.009c0-1.401-1.136-2.536-2.537-2.536l-.136.014h-4.799v.018c-1.361.04-2.452 1.145-2.461 2.513h-.008v27.502h.043c.12 1.257 1.147 2.243 2.426 2.287v.022h4.971c1.4 0 2.536-1.136 2.536-2.537zM67.49 78.554v-36.493l.001-.009c0-1.401-1.136-2.536-2.537-2.536l-.136.014h-9.932c-.15-.244-.334-.453-.536-.637l-9.88-17.115-.025.015c-.99-1.753-2.848-2.936-4.98-2.936-3.171 0-5.742 2.608-5.742 5.825h-.058v14.847h-13.684v.018c-1.361.04-2.452 1.145-2.461 2.513h-.008v28.152h.006c0 .323.124.646.368.894l-.003.003 9.764 9.764.024-.024c.281.231.626.318.967.272h36.103l.217.022c1.355 0 2.454-1.066 2.523-2.405h.008v-.078l.005-.053-.004-.053zm-46.985-8.342l.042.047-.047-.047h.005z"/></svg>