<svg xmlns="http://www.w3.org/2000/svg" width="100" height="100"><path d="M91.967 7.961l.005-.047c0-1.51-1.223-2.731-2.73-2.733h-49.683v.011l-31.528 31.529h-.003v55.365h.003v.001c0 1.507 1.227 2.731 2.734 2.731h78.479c1.307-.002 2.397-.923 2.663-2.15h.06v-.536l.004-.044-.004-.044v-84.083zm-24.328 7.177h14.371v24.597l-18.113-18.114 3.742-6.483zm-28.069 24.315v-.001c1.504-.006 2.722-1.226 2.722-2.73v-21.584h19.588l-27.17 47.06-16.725-16.725v-6.02h21.585zm-21.585 45.409v-32.335l14.143 14.143-10.502 18.192h-3.641zm9.4 0l33.93-58.769 20.696 20.696v38.073h-54.626zM62.03 45.576c-6.645 0-12.026 5.387-12.026 12.027 0 2.659.873 5.109 2.334 7.1l7.759 13.439.157.271.016.027.004-.002c.394.544 1.028.899 1.764.899.664 0 1.243-.302 1.641-.767l.02.011.075-.129c.114-.153.214-.317.287-.497l7.608-13.178c1.494-2.004 2.39-4.482 2.39-7.175-.003-6.639-5.384-12.026-12.029-12.026zm-.119 18.124c-3.274 0-5.926-2.651-5.926-5.925s2.652-5.928 5.926-5.928 5.926 2.654 5.926 5.928-2.652 5.925-5.926 5.925z"/></svg>