<svg xmlns="http://www.w3.org/2000/svg" width="100" height="100"><path d="M27.328 28.507c-8.252 0-14.941 6.689-14.941 14.941s6.689 14.941 14.941 14.941c1.357 0 2.472-.997 2.676-2.296h.043v-24.866c0-1.501-1.218-2.72-2.719-2.72zM87.614 16.314c0-1.501-1.217-2.719-2.719-2.719-.623 0-1.19.218-1.648.57l-23.926 13.814h-21.568c-1.502 0-2.719 1.217-2.719 2.719v25.809h.034c.167 1.341 1.298 2.383 2.685 2.383h19.138l26.16 15.103c.485.45 1.13.731 1.844.731 1.501 0 2.719-1.218 2.719-2.719l-.03-.301h.03v-55.232h-.016l.016-.158zM56.212 79.572l-.038-.066-.033-.073-.046-.064-8.305-14.383-.031.018c-.454-.624-1.13-1.006-1.857-1.096v-.03h-7.222v.018c-.388.032-.775.139-1.135.347-1.301.75-1.746 2.414-.995 3.714l.219.303-.032.019 9.678 16.764.002.005.003.004.097.168.017-.01c.794 1.165 2.356 1.549 3.596.832.145-.084.276-.183.399-.287l.025.043 4.983-2.876-.023-.04c.965-.797 1.264-2.165.691-3.306l.007-.004z"/></svg>