<svg xmlns="http://www.w3.org/2000/svg" width="100" height="100"><path fill="#231F20" d="M95.294 78.127l.026-.015-33.246-57.582-.014.008c-.732-1.502-2.26-2.547-4.044-2.547-1.831 0-3.4 1.096-4.107 2.664l-22.125 38.32-5.417-9.382-.007.004c-.386-.792-1.191-1.344-2.133-1.344-.964 0-1.791.578-2.164 1.402l-15.792 27.354h-.071v.122l-1.529 2.648c-.177.232-.285.518-.285.832 0 .764.619 1.383 1.382 1.383.152 0 .295-.03.432-.076v.091h87v-.05c1.349-.108 2.413-1.224 2.413-2.601.001-.448-.122-.862-.319-1.231z"/></svg>