<svg xmlns="http://www.w3.org/2000/svg" width="100" height="100"><path fill="#231F20" d="M69.328 29.884h-38.761v.01c-1.331.056-2.396 1.144-2.396 2.49v59.967c0 1.345 1.065 2.433 2.396 2.489v.011h38.761c1.38 0 2.5-1.119 2.5-2.5v-59.967c0-1.381-1.119-2.5-2.5-2.5zm-19.269 62.384c-1.353 0-2.45-1.097-2.45-2.45 0-1.354 1.097-2.451 2.45-2.451s2.45 1.097 2.45 2.451c0 1.352-1.097 2.45-2.45 2.45zm11.813-7.396h-23.744v-45.032h23.743v45.032z"/><path d="M69.603 15.696c.428-.55.426-1.303-.006-1.85l.024-.024-.999-.999-.001-.001-.078-.078-.004.004c-10.238-10.154-26.825-10.132-37.032.073l-.034.051-.008-.008-.955.955-.003.002-.002.003-.118.119.024.024c-.464.588-.449 1.427.08 1.979l-.004.004 1.918 1.918.026-.026c.55.428 1.303.427 1.85-.006l.025.024 1.079-1.078-.022-.022.051-.034c8.053-8.052 21.135-8.074 29.221-.075l-.009.009.956.957v.001h.001l.12.121.024-.024c.589.464 1.427.449 1.979-.079l.004.004.021-.021h.001v-.001l1.768-1.768.128-.128-.025-.026zM62.208 21.235l.024-.024-1.079-1.079-.004.004c-6.165-6.078-16.12-6.054-22.251.076l-.033.05-.009-.008-1.079 1.079.024.024c-.465.589-.45 1.427.079 1.979l-.004.004 1.918 1.918.026-.026c.55.428 1.303.427 1.85-.006l.025.025 1.079-1.078-.022-.022.051-.034c3.977-3.977 10.425-3.995 14.436-.072l-.005.005.957.957h.001l.121.121.024-.025c.588.464 1.427.449 1.979-.079l.004.004.021-.021 1.897-1.897-.026-.026c.43-.548.428-1.302-.004-1.849z"/></svg>