<svg xmlns="http://www.w3.org/2000/svg" width="100" height="100"><g fill="#231F20"><path d="M75.46 49.16h.003v-14.373000000000001c0-2.088-1.693-3.781-3.782-3.781-2.088 0-3.783 1.693-3.783 3.781v14.256c0 9.885-8.013 17.897-17.898 17.897s-17.898-8.013-17.898-17.897v-14.256c0-2.088-1.693-3.781-3.782-3.781-2.088 0-3.783 1.693-3.783 3.781v14.373h.003c.058 12.724 9.447 23.243 21.678 25.065v5.438h-13.379v.003c-2.074.018-3.75 1.701-3.75 3.779s1.676 3.761 3.75 3.779v.003h34.29c2.089 0 3.782-1.693 3.782-3.782s-1.693-3.782-3.782-3.782h-13.347v-5.438c12.231-1.822 21.621-12.341 21.678-25.065zM37.186 48.941c0 7.088 5.745 12.833 12.833 12.833 7.087 0 12.831-5.746 12.831-12.833l-.014-.283h.053v-23.336h-.053c-.153-6.955-5.826-12.549-12.817-12.549-6.992 0-12.666 5.594-12.819 12.549h-.052v23.336h.052l-.014.283z"/></g></svg>