<svg xmlns="http://www.w3.org/2000/svg" width="100" height="100"><path d="M88.765 77.291v-54.72l.001-.005-.001-.005v-.235h-.024c-.123-1.286-1.194-2.296-2.513-2.296l-.087.009h-4.569l-.213-.021c-1.4 0-2.537 1.136-2.537 2.537l.035.343v23.141l-33.341-19.25c-.31-.307-.736-.497-1.207-.497-.932 0-1.686.743-1.713 1.669h-.006v15.249l-28.442-16.422c-.31-.307-.736-.497-1.207-.497-.932 0-1.687.743-1.713 1.669h-.005v44.031c0 .949.77 1.718 1.718 1.718.483 0 .918-.2 1.23-.521l28.419-16.408v15.212c0 .949.769 1.718 1.718 1.718.483 0 .918-.2 1.23-.521l33.319-19.237v23.382h.013l-.012.114c0 1.399 1.134 2.533 2.532 2.536h4.852v-.024c1.401 0 2.537-1.136 2.537-2.537l-.014-.132z"/></svg>