<svg xmlns="http://www.w3.org/2000/svg" width="100" height="100"><g fill="#231F20"><path d="M65.551 45.894l-.008.001h-.657l-.008-.001c-.63 0-1.14.51-1.14 1.14l.001 5.932v.154h.03c.077.553.533.986 1.108.986h.668v-.001l.005.001c.575 0 1.031-.433 1.109-.987h.031v-6.086c0-.63-.51-1.139-1.139-1.139zM69.791 45.894l-.008.001h-.656l-.008-.001c-.63 0-1.14.51-1.14 1.14h-.001l.001 6.086h.031c.077.553.533.986 1.108.986h.668v-.001l.005.001c.575 0 1.032-.433 1.109-.987h.031v-6.086c-.001-.63-.511-1.139-1.14-1.139zM50 12.5c-20.712 0-37.5 16.793-37.5 37.502 0 20.71 16.788 37.498 37.5 37.498s37.5-16.788 37.5-37.498c0-20.709-16.788-37.502-37.5-37.502zm0 65.061c-15.199 0-27.56-12.362-27.56-27.559 0-6.702 2.407-12.853 6.4-17.636l13.529 13.529h-12.15l-.008-.001c-.63 0-1.14.51-1.14 1.14l.001.003h-.002v5.93c0 .63.51 1.14 1.14 1.14h20.37l17.055 17.055c-4.783 3.991-10.932 6.399-17.635 6.399zm21.161-9.926l-13.528-13.529h3.463c.629 0 1.14-.51 1.14-1.14v-5.929l.001-.004c0-.63-.511-1.14-1.14-1.14l-.008.001h-11.667l-17.056-17.055c4.782-3.992 10.931-6.4 17.634-6.4 15.198 0 27.56 12.367 27.56 27.562 0 6.703-2.407 12.852-6.399 17.634z"/></g></svg>