<svg xmlns="http://www.w3.org/2000/svg" width="100" height="100"><path d="M88.286 67.965l-.076-.105.002-.001-26.905-46.599-.015.008c-.23-.368-.558-.637-.929-.801l.038-.022-7.986-4.612 8.871 15.365 20.178 34.949-.002.001.076.105c.577.999.234 2.277-.765 2.855l.014.025-29.861 17.24 1.293 2.239.075.166c.562.971 1.785 1.316 2.772.801l.005.008 32.465-18.743-.014-.025c.998-.576 1.34-1.855.764-2.854zM73.88 67.143c.999-.577 1.341-1.855.765-2.855l-.076-.105.002-.001-26.905-46.599-.015.008c-.23-.368-.558-.637-.929-.801l.038-.022-11.01-6.357v.044c-.554-.315-1.232-.367-1.846-.107l-.012-.021-.206.119-.013.006-.012.008-21.183 12.23c-.656.378-1.021 1.058-1.037 1.764l-.007-.004v12.714l.021-.012c-.047.427.03.872.261 1.273l.047.065 26.815 46.446.075.166c.562.971 1.785 1.316 2.772.801l.005.008 32.465-18.743-.015-.025zm-44.335-39.621c-1.849 1.068-4.214.435-5.281-1.414-1.068-1.849-.434-4.213 1.415-5.281 1.849-1.068 4.213-.434 5.281 1.416 1.068 1.848.435 4.213-1.415 5.279z"/></svg>