<svg xmlns="http://www.w3.org/2000/svg" width="100" height="100"><path d="M88.158 16.509c0-.986-.798-1.785-1.785-1.786h-72.745c-.987 0-1.786.799-1.786 1.785v6.386c0 .986.799 1.785 1.786 1.785h72.74600000000001c.987 0 1.785-.799 1.785-1.785l-.001-6.385zM82.026 29.659h-64.052c-.986.001-1.785.8-1.785 1.786l.001.006-.001.003v37.154c0 2.201 1.857 3.982 4.152 3.982h27.17v5.373c-.966.748-1.599 1.906-1.599 3.222 0 2.259 1.831 4.09 4.089 4.09s4.089-1.831 4.089-4.09c0-1.317-.634-2.476-1.601-3.223v-5.372h27.17c2.294 0 4.152-1.781 4.152-3.982v-37.196h-.003c-.019-.97-.808-1.752-1.782-1.753z"/></svg>