<svg xmlns="http://www.w3.org/2000/svg" width="100" height="100"><path d="M94.284 65.553l-18.459-13.142c-.389-.276-.887-.312-1.312-.093-.424.218-.684.694-.685 1.173l.009 6.221h-16.606c-.706 0-1.391.497-1.391 1.204v11.442c0 .707.685 1.194 1.391 1.194h16.774v6.27c0 .478.184.917.609 1.136.425.219.853.182 1.242-.096l18.432-13.228c.335-.239.477-.626.477-1.038v-.002c0-.415-.144-.801-.481-1.041zM64.06 78.553h-6.49c-.956 0-1.73.774-1.73 1.73h-.007v3.01h-40.642v-47.133h17.723c.956 0 1.73-.774 1.73-1.73v-17.723h21.188v36.356h.011c.021.937.784 1.691 1.726 1.691h6.49c.943 0 1.705-.754 1.726-1.691h.004v-40.562h-.005v-4.021c0-.956-.774-1.73-1.73-1.73h-32.87l-25.949 25.95v58.819c0 .956.774 1.73 1.73 1.73h57.089c.956 0 1.73-.774 1.73-1.73v-2.448h.005v-8.79c.001-.953-.774-1.728-1.729-1.728z"/></svg>