<svg xmlns="http://www.w3.org/2000/svg" width="100" height="100"><path d="M40.531 19.959l-.283.029v-.029h-10.337c-1.194 0-2.163.968-2.163 2.163v.005h-.001v55.743h.001l-.001.009c0 1.194.969 2.162 2.163 2.162h10.62c1.194 0 2.162-.968 2.162-2.162l-.001-.009h.001v-55.743l.001-.005c0-1.195-.969-2.163-2.162-2.163zM72.251 77.87v-55.743l.001-.005c0-1.195-.969-2.163-2.162-2.163l-.283.029v-.029h-10.337c-1.194 0-2.163.968-2.163 2.163v.005h-.001v55.743h.001l-.001.009c0 1.194.969 2.162 2.163 2.162h10.618c1.194 0 2.162-.968 2.162-2.162l.002-.009z"/></svg>