<svg xmlns="http://www.w3.org/2000/svg" width="100" height="100"><path d="M75.272 7.482h-.005v-4.02c0-.956-.774-1.73-1.73-1.73h-32.87l-25.95 25.95v58.819c0 .956.774 1.73 1.73 1.73h57.089c.956 0 1.73-.774 1.73-1.73v-2.448h.005l.001-76.571zm-50.598 70.794v-47.134h17.723c.956 0 1.73-.774 1.73-1.73v-17.723h21.188v66.587h-40.641zM83.77 24.857h-3.475v66.911c0 .835-.677 1.513-1.513 1.513h-49.476v3.475c0 .836.677 1.513 1.513 1.513h52.951c.836 0 1.513-.677 1.513-1.513v-70.386c0-.836-.677-1.513-1.513-1.513z"/></svg>