<svg xmlns="http://www.w3.org/2000/svg" width="100" height="100"><path d="M94.284 65.553l-18.459-13.142c-.389-.276-.887-.312-1.312-.093-.424.218-.684.694-.685 1.173l.009 6.221h-16.606c-.706 0-1.391.497-1.391 1.204v11.442c0 .707.685 1.194 1.391 1.194h16.774v6.27c0 .478.184.917.609 1.136s.853.182 1.242-.097l18.432-13.228c.335-.239.477-.626.477-1.038v-.002c0-.414-.144-.8-.481-1.04zM64.06 78.553h-6.49c-.956 0-1.73.774-1.73 1.73h-.007v3.01h-40.642v-47.133h17.723c.956 0 1.73-.774 1.73-1.73v-17.723h21.188v36.356h.011c.021.937.784 1.691 1.726 1.691h6.49c.943 0 1.705-.754 1.726-1.691h.004v-40.562999999999995h-.005v-4.02c0-.956-.774-1.73-1.73-1.73h-32.87l-25.949 25.95v58.819c0 .956.774 1.73 1.73 1.73h57.089c.956 0 1.73-.774 1.73-1.73v-2.448h.005v-8.79c.001-.953-.774-1.728-1.729-1.728zM21.525 61.862v9.231h2.795v-2.906h2.131c2.159 0 3.321-1.439 3.321-3.156 0-1.73-1.162-3.169-3.321-3.169h-4.926zm5.411 3.169c0 .484-.374.72-.844.72h-1.772v-1.453h1.771c.471 0 .845.235.845.733zM31.228 61.862v9.231h4.138c2.893 0 5.052-1.675 5.052-4.623s-2.159-4.608-5.065-4.608h-4.125zm6.352 4.609c0 1.163-.83 2.187-2.228 2.187h-1.329v-4.36h1.342c1.495 0 2.215.927 2.215 2.173z"/><polygon points="49.116,64.298 49.116,61.862 42.113,61.862 42.113,71.093 44.908,71.093 44.908,67.647 49.018,67.647 49.018,65.211 44.908,65.211 44.908,64.298"/></svg>