<svg xmlns="http://www.w3.org/2000/svg" width="100" height="100"><path d="M83.095 47.878l-.004-.003-32.088-32.09h-.001c-.984-.984-2.578-.984-3.562 0l-5.26 5.26-11.246-11.246c-.903-.943-2.166-1.535-3.571-1.534-2.743-.001-4.966 2.231-4.964 4.986 0 1.426.603 2.703 1.558 3.612l11.203 11.205-27.277 27.276c-.984.983-.984 2.578 0 3.562l32.091 32.092c.984.984 2.579.984 3.562 0l.001-.001 39.558-39.557c.983-.984.983-2.579 0-3.562zm-19.704 9.228h-43.158l29.003-29.004 21.579 21.58-7.424 7.424zM91.073 73.735l-5.97-10.339-.098-.171-.015-.025-.004.002c-.302-.418-.788-.69-1.351-.69-.508 0-.952.231-1.256.588l-.016-.009-.059.103c-.086.116-.162.239-.217.375l-5.835 10.105c-1.144 1.535-1.829 3.432-1.829 5.493 0 5.09 4.124 9.217 9.216 9.217 5.093 0 9.217-4.127 9.217-9.217 0-2.034-.667-3.907-1.783-5.432z"/></svg>