<svg xmlns="http://www.w3.org/2000/svg" width="100" height="100"><path d="M89.307 12.5h-.005v-4.02c0-.956-.774-1.73-1.73-1.73h-32.870999999999995l-25.949 25.95v5.237h.014c.073.888.809 1.588 1.716 1.588h6.49c.907 0 1.642-.7 1.716-1.588h.021v-1.777h17.723c.956 0 1.73-.774 1.73-1.73v-17.723h21.188v66.587h-40.642v-3.012h-.007c-.001-.954-.775-1.728-1.73-1.728h-6.49c-.955 0-1.729.773-1.73 1.728v11.239c0 .956.774 1.73 1.73 1.73h57.089c.956 0 1.73-.774 1.73-1.73v-2.448h.005l.002-76.573zM49.6 59.04c0-8.847-7.169-16.021-16.02-16.021-8.851 0-16.02 7.174-16.02 16.021 0 2.99.834 5.78 2.26 8.175l-7.815 7.815.031.031c-.831.795-1.344 1.919-1.344 3.194 0 2.463 1.962 4.39 4.423 4.39 1.257 0 2.379-.506 3.181-1.324l.022.022 8.024-8.024c2.176 1.105 4.63 1.741 7.238 1.741 8.851-.001 16.02-7.173 16.02-16.02zm-25.318-.001c0-5.135 4.162-9.298 9.299-9.298s9.298 4.163 9.298 9.298c0 5.136-4.161 9.299-9.298 9.299-5.138 0-9.299-4.163-9.299-9.299z"/></svg>