<svg xmlns="http://www.w3.org/2000/svg" width="100" height="100"><path d="M84.437 39.721h-24.164v-24.158c0-1.001-.812-1.812-1.812-1.813h-16.925c-1.001 0-1.812.812-1.812 1.813l-.001 24.16-24.159-.001c-.961 0-1.812.851-1.813 1.813v16.925c-.001.481.191.943.531 1.282.339.339.801.531 1.282.53h24.16v24.165c0 .48.191.942.531 1.282.34.34.802.531 1.282.531h16.923c.48 0 .943-.192 1.284-.533.338-.338.529-.8.529-1.28v-24.164l24.163-.001c.5 0 .953-.202 1.282-.53.329-.329.531-.782.531-1.283l.001-16.925c0-1.001-.811-1.812-1.813-1.813z"/></svg>