<svg xmlns="http://www.w3.org/2000/svg" width="100" height="100"><path d="M40.416 64.173c.831 0 1.55.623 1.786 1.342l2.408-1.121c-.553-1.273-1.771-2.685-4.193-2.685-2.893 0-5.079 1.924-5.079 4.775 0 2.837 2.187 4.774 5.079 4.774 2.422 0 3.654-1.467 4.193-2.699l-2.408-1.107c-.235.719-.955 1.342-1.786 1.342-1.342 0-2.242-1.024-2.242-2.311s.9-2.31 2.242-2.31zM48.605 64.492c0-.235.152-.415.706-.415.872 0 1.91.304 2.712.913l1.495-1.979c-1.052-.858-2.408-1.287-3.917-1.287-2.533 0-3.833 1.495-3.833 3.059 0 3.64 5.148 2.74 5.148 3.626 0 .36-.498.499-1.024.499-1.246 0-2.284-.526-2.976-1.19l-1.453 2.076c.982.886 2.325 1.467 4.291 1.467 2.477 0 3.986-1.176 3.986-3.211 0-3.434-5.135-2.686-5.135-3.558z"/><polygon points="59.501,68.076 57.508,61.862 54.339,61.862 57.743,71.093 61.258,71.093 64.663,61.862 61.494,61.862"/><path d="M80.277 12.5h-.005v-4.02c0-.956-.774-1.73-1.73-1.73h-32.87l-25.95 25.95v58.819c0 .956.774 1.73 1.73 1.73h57.09c.956 0 1.73-.774 1.73-1.73v-2.448h.005v-76.571zm-50.598 70.794v-47.134h17.723c.956 0 1.73-.774 1.73-1.73v-17.723h21.188v66.587h-40.641z"/></svg>