<svg xmlns="http://www.w3.org/2000/svg" width="100" height="100"><path d="M73.603 78.553h-6.49c-.956 0-1.73.774-1.73 1.73h-.007v3.01h-40.641v-47.133h17.723c.956 0 1.73-.774 1.73-1.73v-17.723h21.188v20.627h.008c.003.954.776 1.726 1.73 1.726h6.49c.954 0 1.727-.772 1.729-1.726v-24.834h-.005v-4.02c0-.956-.774-1.73-1.73-1.73h-32.870999999999995l-25.949 25.95v58.819c0 .956.774 1.73 1.73 1.73h57.089c.956 0 1.73-.774 1.73-1.73v-2.448h.005v-8.79c.001-.953-.773-1.728-1.729-1.728zM79.21 58.751l5.505-5.505c.676-.676.676-1.771 0-2.447l-4.894-4.893c-.676-.676-1.771-.676-2.446 0l-5.505 5.505-5.505-5.505c-.676-.676-1.77-.676-2.446 0l-4.893 4.894c-.676.676-.676 1.771 0 2.447l5.505 5.505-5.505 5.505c-.676.676-.676 1.771 0 2.446l4.894 4.893c.676.676 1.77.676 2.446 0l5.505-5.505 5.505 5.505c.676.676 1.77.676 2.446 0l4.894-4.893c.676-.676.676-1.771 0-2.446l-5.506-5.506z"/></svg>