<svg xmlns="http://www.w3.org/2000/svg" width="100" height="100"><path d="M67.041 78.553h-6.49c-.956 0-1.73.774-1.73 1.73h-.007v3.01h-40.641v-47.133h17.723c.956 0 1.73-.774 1.73-1.73v-17.723h21.188v12.34h.016c.047.913.796 1.641 1.721 1.641h6.49c.925 0 1.674-.728 1.721-1.641h.009v-16.548000000000002h-.005v-4.019c0-.956-.774-1.73-1.73-1.73h-32.870999999999995l-25.949 25.95v58.819c0 .956.774 1.73 1.73 1.73h57.089c.956 0 1.73-.774 1.73-1.73v-2.448h.005v-8.79c.001-.953-.773-1.728-1.729-1.728zM91.277 39.04l-11.621-11.621c-.676-.676-1.771-.676-2.447 0l-31.805 31.805.069.069-.109-.029-4.351 16.237.003.001c-.199.601-.066 1.287.412 1.765.528.528 1.309.638 1.948.341l.002.006 16.08-4.309-.01-.037.023.024 31.806-31.806c.676-.675.676-1.77 0-2.446zm-44.972 33.313l2.584-9.643 7.059 7.059-9.643 2.584z"/></svg>