<svg xmlns="http://www.w3.org/2000/svg" width="100" height="100"><path d="M41.131 61.862h-4.927v9.231h2.796v-2.906h2.131c2.159 0 3.321-1.439 3.321-3.156.001-1.73-1.162-3.169-3.321-3.169zm-.36 3.889h-1.771v-1.453h1.771c.471 0 .844.235.844.733.001.485-.373.72-.844.72zM50.032 61.862h-4.124v9.231h4.138c2.893 0 5.052-1.675 5.052-4.623s-2.16-4.608-5.066-4.608zm0 6.796h-1.329v-4.36h1.342c1.495 0 2.214.927 2.214 2.173.001 1.162-.829 2.187-2.227 2.187z"/><polygon points="56.792,71.093 59.588,71.093 59.588,67.647 63.698,67.647 63.698,65.211 59.588,65.211 59.588,64.298 63.795,64.298 63.795,61.862 56.792,61.862"/><path d="M80.277 12.5h-.005v-4.02c0-.956-.774-1.73-1.73-1.73h-32.87l-25.95 25.95v58.819c0 .956.774 1.73 1.73 1.73h57.09c.956 0 1.73-.774 1.73-1.73v-2.448h.005v-76.571zm-50.598 70.794v-47.134h17.723c.956 0 1.73-.774 1.73-1.73v-17.723h21.188v66.587h-40.641z"/></svg>