<svg xmlns="http://www.w3.org/2000/svg" width="100" height="100"><path d="M75.412 70.658v-.033h-.003c-.018-.939-.783-1.696-1.727-1.696h-6.49c-.944 0-1.708.757-1.727 1.696h-.01v12.668h-40.641v-47.133h17.723c.956 0 1.73-.774 1.73-1.73v-17.723h21.188v30.2h.013c.034.926.789 1.668 1.724 1.668h6.49c.935 0 1.69-.742 1.724-1.668h.006v-34.406000000000006h-.005v-4.021c0-.956-.774-1.73-1.73-1.73h-32.87l-25.95 25.95v58.819c0 .956.774 1.73 1.73 1.73h57.089c.956 0 1.73-.774 1.73-1.73v-2.448h.005v-18.413h.001zM83.413 53.562h-25.95c-.956 0-1.73.774-1.73 1.73v6.92c0 .955.774 1.73 1.73 1.73h25.95c.956 0 1.73-.775 1.73-1.73v-6.92c0-.957-.775-1.73-1.73-1.73z"/></svg>