<svg xmlns="http://www.w3.org/2000/svg" width="100" height="100"><path d="M73.682 78.553h-6.49c-.956 0-1.73.774-1.73 1.73h-.007v3.01h-40.641v-47.133h17.723c.956 0 1.73-.774 1.73-1.73v-17.723h21.188v20.627h.008c.003.954.776 1.726 1.73 1.726h6.49c.954 0 1.727-.772 1.729-1.726v-24.834h-.005v-4.02c0-.956-.774-1.73-1.73-1.73h-32.87l-25.95 25.95v58.819c0 .956.774 1.73 1.73 1.73h57.089c.956 0 1.73-.774 1.73-1.73v-2.448h.005v-8.79c.001-.953-.773-1.728-1.729-1.728zM83.413 53.562h-7.785v-7.785c0-.955-.774-1.73-1.73-1.73h-6.92c-.956 0-1.73.775-1.73 1.73v7.785h-7.785c-.956 0-1.73.774-1.73 1.73v6.92c0 .955.774 1.73 1.73 1.73h7.785v7.785c0 .956.774 1.731 1.73 1.731h6.92c.956 0 1.73-.774 1.73-1.731v-7.785h7.785c.956 0 1.73-.775 1.73-1.73v-6.92c0-.957-.775-1.73-1.73-1.73z"/></svg>