<svg xmlns="http://www.w3.org/2000/svg" width="100" height="100"><path d="M87.06 26.291c-.483 0-.918.2-1.23.521l-28.42 16.408v-15.211c0-.949-.769-1.718-1.718-1.718-.483 0-.918.2-1.23.521l-33.318 19.237v-23.382h-.013l.012-.114c0-1.399-1.134-2.533-2.532-2.536h-4.852v.024c-1.401 0-2.537 1.136-2.537 2.537l.013.131v54.967h.024c.123 1.286 1.194 2.296 2.513 2.296l.087-.009h4.569l.213.021c1.4 0 2.537-1.136 2.537-2.537l-.035-.343v-23.142l33.341 19.25c.31.307.736.497 1.207.497.932 0 1.686-.743 1.713-1.669h.005v-15.249l28.443 16.422c.31.307.736.497 1.207.497.932 0 1.687-.743 1.713-1.669h.005v-44.032c.001-.949-.769-1.718-1.717-1.718z"/></svg>