<svg xmlns="http://www.w3.org/2000/svg" width="100" height="100"><path d="M92.11 21.929c0-.973-.789-1.761-1.761-1.761l-.006.001v-.005h-45.878v.014c-.965.005-1.746.786-1.751 1.752h-.001v6.342l-.009.087c0 .972.788 1.76 1.761 1.761h45.878l.006.001c.973 0 1.761-.789 1.761-1.761v-6.431zM92.11 36.83c0-.973-.789-1.761-1.761-1.761l-.006.001v-.005h-45.878v.014c-.965.005-1.746.786-1.751 1.752h-.001v6.343l-.009.087c0 .972.788 1.76 1.761 1.761h45.878v-.001l.006.001c.973 0 1.761-.789 1.761-1.761v-6.431zM32.748 21.925c0-.973-.788-1.761-1.761-1.761l-.126.013h-21.084l-.126-.013c-.973 0-1.761.789-1.761 1.761v21.335c0 .972.788 1.761 1.761 1.761h21.336c.973 0 1.761-.789 1.761-1.761v-21.335zM92.11 56.744c0-.973-.789-1.761-1.761-1.761l-.006.001v-.005h-45.878v.014c-.965.005-1.746.786-1.751 1.752h-.001v6.343l-.009.087c0 .972.788 1.761 1.761 1.761h45.878v-.001l.006.001c.973 0 1.761-.789 1.761-1.761v-6.431zM92.11 71.645c0-.973-.789-1.761-1.761-1.761l-.006.001v-.005h-45.878v.014c-.965.005-1.746.786-1.751 1.752h-.001v6.342l-.009.087c0 .972.788 1.761 1.761 1.761h45.878v-.001l.006.001c.973 0 1.761-.789 1.761-1.761v-6.430000000000001zM32.748 56.74c0-.973-.788-1.762-1.761-1.762l-.126.013h-21.084l-.126-.013c-.973 0-1.761.789-1.761 1.762v21.335c0 .972.789 1.761 1.761 1.761h21.336000000000002c.973 0 1.761-.789 1.761-1.761v-21.335z"/></svg>