<svg xmlns="http://www.w3.org/2000/svg" width="100" height="100"><path d="M26.258 64.949c-4.848 0-8.78 3.93-8.78 8.784 0 4.848 3.932 8.782 8.78 8.782 4.855 0 8.784-3.934 8.784-8.782 0-4.855-3.929-8.784-8.784-8.784zM23.536 40.801l-.135.007v-.007h-3.464v.039c-1.698.193-3.021 1.603-3.056 3.344h-.007v6.159h.041c.19 1.581 1.437 2.822 3.021 3.002v.039h3.464v-.048l.135.007c12.772 0 23.173 10.321 23.311 23.061h-.033v3.464h.039c.193 1.698 1.603 3.021 3.344 3.056v.007h6.158v-.041c1.581-.19 2.822-1.437 3.002-3.021h.039v-3.464h-.006c-.137-19.657-16.166-35.604-35.853-35.604zM83.119 76.403c-.139-32.739-26.811-59.333-59.583-59.333l-.135.007v-.007h-3.464v.039c-1.698.193-3.021 1.603-3.056 3.344h-.007v6.159h.041c.19 1.582 1.437 2.822 3.021 3.002v.039h3.464v-.048l.135.007c25.857 0 46.902 20.967 47.041 46.792h-.035v3.464h.039c.193 1.698 1.603 3.021 3.344 3.056v.007h6.159v-.041c1.581-.19 2.822-1.437 3.002-3.021h.039v-3.464h-.005z"/></svg>