<svg xmlns="http://www.w3.org/2000/svg" width="100" height="100"><path d="M27.953 46.506c-1.385-2.83-2.117-6.008-2.117-9.192 0-1.743.252-3.534.768-5.468.231-.87.521-1.702.847-2.509-1.251-.683-2.626-1.103-4.101-1.103-5.47 0-9.898 5.153-9.898 11.517 0 4.452 2.176 8.305 5.354 10.222l-13.415 6.244c-.836.393-1.387 1.337-1.387 2.392v10.588c0 1.419.991 2.569 2.21 2.569h7.929v-11.11c0-3.237 1.802-6.172 4.599-7.481l10.262-4.779c-.38-.604-.731-1.235-1.051-1.89zM60.137 34.801h34.092v-.001l.006.001c.973 0 1.761-.789 1.761-1.761v-6.431c0-.973-.789-1.761-1.761-1.761l-.006.001v-.005h-38.096c1.614 2.114 2.844 4.627 3.526 7.435.215.889.371 1.72.478 2.522zM95.996 66.436c0-.973-.789-1.761-1.761-1.761l-.006.001v-.005h-22.222v9.089c0 .293-.016.582-.045.867h22.267v-.001l.006.001c.973 0 1.761-.789 1.761-1.761v-6.430000000000001zM94.235 44.762l-.006.001v-.005h-35.285c-.159.419-.327.836-.514 1.249-.364.802-.773 1.569-1.224 2.297l10.288 4.908c.781.378 1.473.897 2.078 1.503h24.657v-.001l.006.001c.973 0 1.761-.789 1.761-1.761v-6.431c0-.973-.789-1.761-1.761-1.761zM65.323 57.702l-11.551-5.51-4.885-2.33c2.134-1.344 3.866-3.418 5-5.917.899-1.984 1.435-4.231 1.435-6.631 0-1.348-.213-2.627-.512-3.863-1.453-5.983-6.126-10.392-11.736-10.392-5.504 0-10.106 4.251-11.648 10.065-.356 1.333-.602 2.72-.602 4.189 0 2.552.596 4.93 1.609 7 1.171 2.4 2.906 4.379 5.018 5.651l-4.678 2.178-11.926 5.554c-1.037.485-1.717 1.654-1.717 2.959v13.105c0 1.756 1.224 3.181 2.735 3.181h42.417c1.511 0 2.735-1.424 2.735-3.181v-13.104c.002-1.301-.668-2.458-1.694-2.954z"/></svg>