<svg xmlns="http://www.w3.org/2000/svg" width="100" height="100"><path d="M93.246 44.073l.731-15.993h-31.276l-1.564 8.465v-6.128h-17.171v7.947h-5.567v1.736c-3.268-2.575-8.316-2.712-12.109-1.3v-10.72h-22.739v15.041h2.956v12.864h-2.957v14.903h60.542v-1.955c3.732 2.115 8.155 2.986 12.412 2.986 5.88 0 10.547-1.768 13.888-4.518 3.461-2.849 5.606-7.444 5.994-12.132.331-4.007-.623-8.084-3.14-11.196zm-45.334-9.71h9.279v6.255h-9.279v-6.255zm-6.264 32.58h-16.287v-7.011h1.557v-8.562c0-4.036-4.575-2.609-4.575 4.052v4.51h1.375v7.011h-16.221v-7.011h2.955v-20.757h-2.955v-7.148h14.846v15.153c1.955-3.149 4.606-5.295 8.998-5.295 6.221 0 7.154 5.391 7.154 7.53v10.517h3.152v7.011zm18.498 0h-17.733v-7.011h2.887v-10.448h-2.956v-7.174h14.846v17.621h2.956v7.012zm16.358 1.031c-6.803 0-12.444-2.532-14.475-6.278-2.098-3.868-.452-9.839 4.657-9.849 3.333-.006 5.436 1.477 4.732 5.283-.884 2.564.797 3.414 2.423 3.414 2.464 0 4.336-2.837 4.464-5.733.12-2.721-1-5.366-3.508-5.395-1.017-.012-2.227.371-3.379 1.778l-8.77-1.183 3.323-17.985h23.886l-.43 9.416h-15.764l-.362 3.016c2.267-1.005 4.984-1.689 7.482-1.689 6.628 0 11.978 3.343 11.667 12.077 0 6.738-5.512 13.128-15.946 13.128z"/></svg>