<svg xmlns="http://www.w3.org/2000/svg" width="100" height="100"><path fill="#231F20" d="M97.017 82.01v-4.62h-.002l.002-.018c-.01-1.335-1.092-2.407-2.42-2.417v-.003h-7.512l-33.037-57.22-.013.008c-.732-1.503-2.26-2.547-4.044-2.547-1.832 0-3.401 1.096-4.108 2.665l-32.963 57.093h-7.534c-1.347 0-2.44 1.091-2.44 2.438v4.863h.012l-.012.114c0 1.347 1.092 2.439 2.44 2.439h89.21v-.004l.037.003c1.346-.01 2.43-1.111 2.42-2.458l-.036-.336zm-49.504-56.851h4.977l5.748 9.957h-16.473l5.748-9.957zm-11.496 19.913h27.971l5.748 9.957h-39.468l5.749-9.957zm-17.251 29.879l5.748-9.957h50.976l5.748 9.957h-62.472z"/></svg>