<svg xmlns="http://www.w3.org/2000/svg" width="100" height="100"><g fill="#231F20"><polygon points="66.746,37.902 67.007,53.646 57.843,38.842 57.261,37.902 52.68,37.902 51.843,37.902 51.789,37.902 51.789,46.4 51.789,62.903 57.898,62.903 57.636,47.722 67.308,62.903 72.855,62.903 72.855,49.113 72.855,37.902 66.746,37.902"/><path d="M79 14h-58c-3.85 0-7 3.15-7 7v58c0 3.85 3.15 7 7 7h31.825l-27.982-22.444v-26.654000000000003h10.529c3.975 0 6.096.493 8.394 1.945 1.259.771 2.411 1.865 3.327 3.156.377.523.703 1.071.993 1.637l2.703 2.014v-8.753h7.029000000000001l.293.474.104.167 7.625 6.025-.094-5.65-.017-1.017h8.126v.01l12.145 9.843v-25.753c0-3.85-3.15-7-7-7zM40.842 38.546c-1.324-.434-2.861-.613-5-.636l-.471-.008h-8.395999999999999v25.001h9.822c7.085 0 11.771-5.023 11.771-12.595 0-3.072-.75-5.586-2.286-7.721-.172-.243-.359-.474-.55-.702l-.414-.46-.243-.256-.378-.361-.388-.334-.305-.248c-.247-.188-.499-.366-.759-.526-.263-.167-.523-.319-.784-.458-.244-.131-.489-.248-.737-.357l-.05-.024c-.272-.117-.547-.222-.832-.315zm1.351 11.95c0 4.387-2.136 6.786-6.109 6.786h-2.737v-13.758h2.774c3.899 0 6.072 2.513 6.072 6.972z"/></g></svg>