<svg xmlns="http://www.w3.org/2000/svg" width="100" height="100"><g><path d="M39.749 33.478c-11.464-7.078-18.27-10.103-18.27-10.103-6.502 6.978-10.479 16.344-10.479 26.644 0 9.229 3.19 17.695 8.522 24.373 0 .001-5.349-14.369 20.227-40.914zM49.971 25.935l.032.018-.026-.018c15.609-11.279 25.305-5.611 25.305-5.611-6.803-5.846-15.642-9.381-25.305-9.381-9.659 0-18.498 3.535-25.301 9.381-.001 0 9.695-5.801 25.295 5.611zM49.846 41.947c-21.696 16.059-28.022 35.012-28.022 35.012 7.083 7.455 17.08 12.098 28.152 12.098 11.101 0 21.114-4.658 28.199-12.141 0 0-4.12-17.047-28.329-34.969zM89 50.019c0-10.301-3.978-19.666-10.479-26.644 0 0-6.806 3.025-18.27 10.103 25.576 26.545 20.227 40.914 20.227 40.914 5.332-6.677 8.522-15.144 8.522-24.373z"/></g></svg>