<svg xmlns="http://www.w3.org/2000/svg" width="100" height="100"><g fill="#231F20"><path d="M66.078 14.577c-5.087-2.312-10.495-3.495-16.08-3.495-4.65 0-9.221.894-13.62 2.542 1.031.936 28.368 25.748 29.7 26.959v-26.006zM29.924 83.389v-33.531c-1.303 1.187-15.665 14.237-16.114 14.642 3.126 7.839 8.832 14.487 16.114 18.889zM11 50.082c0 3.35.505 6.757 1.416 10.132 1.058-.959 33.894-30.793 34.569-31.408-.659-.6-14.314-12.995-14.759-13.398-13.092 6.719-21.226 19.969-21.226 34.674zM34.019 67.034v18.605c3.965 1.776 8.111 2.885 12.378 3.279h7.161c13.471-1.256 25.498-9.561 31.474-21.885-1.408.001-50.175.001-51.013.001zM70.189 16.813v46.111h16.598c1.453-4.157 2.213-8.476 2.213-12.842 0-13.553-7.206-26.206-18.811-33.269z"/></g></svg>