<svg xmlns="http://www.w3.org/2000/svg" width="100" height="100"><g fill-rule="evenodd" clip-rule="evenodd"><path d="M50.104 34.348c-8.863 0-16.062 7.198-16.062 16.076s7.199 16.062 16.062 16.062c8.878 0 16.077-7.185 16.077-16.062 0-8.878-7.199-16.076-16.077-16.076zM79 14h-58c-3.866 0-7 3.134-7 7v58c0 3.866 3.134 7 7 7h58c3.866 0 7-3.134 7-7v-58c0-3.866-3.134-7-7-7zm-28.896 60.707c-13.404 0-24.297-10.864-24.297-24.283s10.893-24.311 24.297-24.311c13.419 0 24.297 10.893 24.297 24.311 0 13.419-10.878 24.283-24.297 24.283z"/></g></svg>