<svg xmlns="http://www.w3.org/2000/svg" width="100" height="100"><path d="M92.43 40.935c0 3.889-3.155 7.039-7.041 7.039-3.886 0-7.039-3.15-7.039-7.039 0-3.883 3.153-7.039 7.039-7.039 3.886-.001 7.041 3.156 7.041 7.039zm-7.076-13.104c-7.218 0-13.08 5.822-13.145 13.025l-8.19 11.736c-.333-.035-.672-.055-1.016-.055-1.829 0-3.539.504-5.008 1.381l-37.094-14.917c-.97-4.4-4.903-7.719-9.586-7.719-5.406 0-9.815 4.424-9.815 9.828 0 5.41 4.409 9.816 9.815 9.816 1.83 0 3.541-.504 5.009-1.379l37.094 14.889c.959 4.412 4.893 7.733 9.584 7.733 5.083 0 9.275-3.896 9.762-8.858l12.589-9.201c7.258 0 13.146-5.877 13.146-13.135s-5.887-13.144-13.145-13.144zm0 4.332c4.863 0 8.813 3.951 8.813 8.812 0 4.863-3.951 8.801-8.813 8.801-4.861 0-8.813-3.938-8.813-8.801 0-4.861 3.952-8.812 8.813-8.812zm-74.039 1.719c2.773 0 5.166 1.549 6.377 3.832l-3.588-1.436v.016c-2.891-1.041-6.102.375-7.256 3.248-1.156 2.873.174 6.127 2.978 7.379v.014l3.046 1.215c-.501.111-1.023.178-1.557.178-3.999 0-7.215-3.217-7.215-7.217 0-3.999 3.215-7.229 7.215-7.229zm51.687 21.254c4.001 0 7.216 3.217 7.216 7.217 0 3.998-3.215 7.215-7.216 7.215-2.781 0-5.184-1.551-6.389-3.844 1.187.48 2.375.953 3.56 1.436 2.941 1.182 6.292-.242 7.473-3.182 1.183-2.941-.254-6.275-3.196-7.459l-3.004-1.205c.501-.108 1.023-.178 1.556-.178z"/></svg>