<svg xmlns="http://www.w3.org/2000/svg" width="100" height="100"><rect x="52.872" y="17.026" width="10.352" height="21.471"/><path d="M86.217 19.195l.006-.006-5.211-5.212c-.437-.479-1.06-.785-1.76-.785l-.04.004h-9.087v.024c-.286.029-.564.128-.779.344-.215.215-.315.493-.343.779h-.028v25.306h-.009c-.047 1.277-1.089 2.3-2.378 2.3h-34.452999999999996v-.012c-1.234-.062-2.215-1.05-2.259-2.288h-.009v-25.306h-.048c-.051-.266-.158-.526-.367-.735-.311-.311-.724-.427-1.119-.387v-.028h-12.950999999999999c-1.318 0-2.387 1.068-2.386 2.388v68.84100000000001c-.001 1.319 1.067 2.386 2.387 2.386h7.57v-33.00699999999999h.009c.041-1.122.851-2.046 1.92-2.255v-.013h.132l.326-.032h49.38699999999999v.009c1.249.045 2.247 1.042 2.292 2.291h.009v33.007h7.581c1.319 0 2.387-1.068 2.387-2.386v-63.393l.007-.073c0-.701-.306-1.325-.786-1.761z"/></svg>