<svg xmlns="http://www.w3.org/2000/svg" width="100" height="100"><g fill="#231F20"><polygon points="65.269,85.165 23.208,85.165 23.429,57.022 17.109,56.962 17.074,92 71.927,92 71.927,57.126 65.269,57.126"/><rect x="27.414" y="73.601" width="32.947" height="7.008"/><rect x="27.765" y="62.557" transform="matrix(.995 .096 -.096 .995 6.561 -3.953)" width="33.122" height="7.186"/><rect x="29.605" y="51.079" transform="matrix(.962 .272 -.272 .962 16.584 -10.484)" width="33.122" height="7.184"/><rect x="34.687" y="38.636" transform="matrix(.856 .517 -.517 .856 29.215 -20.414)" width="33.122" height="7.186"/><rect x="45.221" y="27.283" transform="matrix(-.582 -.813 .813 -.582 72.667 99.08)" width="33.122" height="7.185"/><rect x="73.06" y="8.366" transform="matrix(.986 -.165 .165 .986 -3.061 12.978)" width="7.185" height="33.123"/></g></svg>