<svg xmlns="http://www.w3.org/2000/svg" width="100" height="100"><path d="M19.401 62.222h-11.379c-.169-.036-.344-.056-.525-.056-1.236 0-2.262.885-2.488 2.056h-.047v11h.076c.238.992 1.056 1.75 2.078 1.906v.094h17v-.061c1.739-.021 3.23-1.008 4.002-2.443l10.512-10.512-10.606-10.607-8.623 8.623zM94.651 30.776l-18.614-13.26c-.393-.28-.891-.315-1.319-.094-.428.219-.688.662-.688 1.146l.002 5.599h-14.916v.026c-1.066.06-2.029.476-2.781 1.138l-.021-.021-10.592 10.59 10.607 10.607 7.341-7.341h10.368l.002 6.005c0 .481.271.924.7 1.146.429.222.946.183 1.34-.099l18.576-13.346c.338-.241.461-.631.461-1.046v-.003c-.001-.417-.126-.806-.466-1.047zM94.578 67.126l-18.576-13.345c-.394-.282-.911-.319-1.339-.099-.429.223-.7.665-.7 1.146l-.002 6.005h-10.369l-35.552-35.552c-.772-1.435-2.263-2.421-4.001-2.442v-.061h-17v.094c-1.022.156-1.84.914-2.078 1.906h-.077v11h.049c.225 1.171 1.252 2.056 2.488 2.056.18 0 .355-.02.525-.056h11.378l36.913 36.913.021-.021c.753.662 1.716 1.078 2.782 1.138v.026h14.916l-.002 5.599c0 .484.26.928.688 1.146.429.223.926.187 1.319-.093l18.614-13.26c.34-.242.465-.631.465-1.049v-.004c-.001-.415-.124-.806-.462-1.047z"/></svg>