<svg xmlns="http://www.w3.org/2000/svg" width="100" height="100"><path d="M32.092 55.916h14.575c1.087 0 2.563 2.496 4.734 4.039v-1.776s-.07-1.053.348-1.69c.424-.639 1.308-.809 1.584-.809h14.575s4.401-.74 9.294-3.044l-53.794.514c4.642 2.082 8.684 2.766 8.684 2.766z" fill="none"/><path d="M16.868 55.111c-.385-.293-.733-.576-1.061-.855.247.396.609.703 1.061.855zM19.538 15.561h60.708v35.516c2.128-1.18 3.271-1.984 4.054-2.499v-35.05c0-1.118-.907-2.028-2.03-2.028h-64.762c-1.123 0-2.033.91-2.033 2.028v35.14c.771.486 1.878 1.301 4.063 2.52v-35.627zM87.791 47.978c-.523-.417-1.247-.415-2.396 0-.335.122-.674.325-1.095.6-.783.515-1.925 1.319-4.054 2.499-.657.36-1.373.748-2.241 1.183l-.803.377c-4.893 2.304-9.294 3.044-9.294 3.044h-14.575c-.276 0-1.16.17-1.584.809-.418.638-.348 1.69-.348 1.69v1.776c.526.373 1.082.707 1.695.918 4.394 1.498 7.367.192 8.664-1.628 1.517-2.134 2.289-3.329 3.955-2.705 1.666.624 0 4.68-2.08 6.763-2.085 2.084-4.584 3.749-8.12 3.749-1.486 0-2.926-.223-4.114-.476v15.131c0 4.27 4.538 6.552 7.658 6.552 3.119 0 9.367-1.768 12.387-9.263 3.017-7.493-.205-17.381-.205-17.381s4.888-2.191 9.991-5.414c5.098-3.225 6.455-6.246 6.559-6.67.1-.427.516-1.136 0-1.554zM63.635 63.303c2.08-2.083 3.746-6.139 2.08-6.763-1.666-.624-2.438.571-3.955 2.705-1.297 1.82-4.27 3.126-8.664 1.628-.613-.211-1.169-.545-1.695-.918-2.17-1.543-3.647-4.039-4.734-4.039h-14.575s-4.043-.684-8.684-2.766c-.466-.21-.935-.418-1.411-.657-.968-.485-1.751-.91-2.459-1.306-2.185-1.219-3.292-2.033-4.063-2.52-.321-.203-.593-.355-.871-.455-1.144-.416-1.873-.416-2.394 0-.518.418-.104 1.128 0 1.553.08.325.913 2.184 3.596 4.49.328.279.676.562 1.061.855.57.434 1.192.877 1.902 1.326 5.098 3.227 9.991 5.412 9.991 5.412s-3.227 9.886-.205 17.381c3.018 7.494 9.263 9.27 12.385 9.27 3.123 0 7.661-2.297 7.661-6.564v-16.131s1.152.42 2.799.771c1.188.253 2.628.476 4.114.476 3.537.001 6.036-1.664 8.121-3.748zM61.017 34.381c-5.003 0-9.058 4.057-9.058 9.057 0 4.999 4.055 9.056 9.058 9.056 4.998 0 9.052-4.057 9.052-9.056 0-5-4.054-9.057-9.052-9.057zM39.544 34.381c-5 0-9.053 4.057-9.053 9.057 0 4.999 4.052 9.056 9.053 9.056 5.003 0 9.058-4.057 9.058-9.056 0-5-4.055-9.057-9.058-9.057z"/></svg>