<svg xmlns="http://www.w3.org/2000/svg" width="100" height="100"><path d="M25.194 51.591c1.757 1.379 3.766 2.068 6.026 2.068 2.855-.105 5.234-1.131 7.138-3.076.918-1.377 1.508-2.791 1.77-4.24.157-1.447.236-2.668.236-3.658 0-4.276-1.094-8.588-3.281-12.936-1.026-2.084-2.376-3.781-4.051-5.09-1.71-1.236-3.675-1.891-5.897-1.961-2.939.07-5.384 1.256-7.331 3.553-1.644 2.404-2.43 5.09-2.358 8.057 0 3.924 1.147 8.008 3.444 12.248 1.111 1.978 2.546 3.658 4.304 5.035zM31.781 68.05c-.782-1.027-1.479-2.127-2.091-3.299-.714-1.133-1.07-2.5-1.07-4.096 0-.957.135-1.756.407-2.395l.663-1.861c-1.232.143-2.394.213-3.485.213-5.169-.062-9.237-1.527-12.205-4.388v19.338c2.652-1.215 5.399-2.068 8.241-2.561 3.829-.564 7.009-.881 9.54-.951zM34.74 71.114c-.691-.072-1.502-.107-2.435-.107-.553-.07-1.969 0-4.248.213-2.246.317-4.542.828-6.89 1.533-.553.213-1.33.529-2.331.953-1.002.459-2.021 1.111-3.056 1.959-.662.582-1.254 1.258-1.78 2.025v2.949c0 2.766 2.248 5.014 5.013 5.014h27.326l.005-.199c0-2.752-.899-5.15-2.694-7.197-1.9-1.94-4.869-4.32-8.91-7.143zM80.986 14.347h-61.973c-2.766 0-5.013 2.246-5.013 5.014v6.723c.316-.336.643-.67.985-1 3.083-2.539 6.288-4.195 9.612-4.973 3.29-.67 6.375-1.004 9.253-1.004h21.692l-6.699 3.91h-6.689c.681.422 1.448 1.041 2.299 1.852.817.846 1.618 1.887 2.401 3.121.749 1.164 1.413 2.539 1.992 4.127.476 1.586.715 3.44.715 5.555-.064 3.881-.921 6.984-2.569 9.312-.809 1.129-1.665 2.168-2.569 3.121-1.002.953-2.068 1.922-3.199 2.91-.646.67-1.244 1.428-1.793 2.275-.646.881-.97 1.904-.97 3.068 0 1.129.332 2.062.994 2.803.563.707 1.11 1.324 1.641 1.854l3.68 3.016c2.287 1.869 4.292 3.932 6.016 6.189 1.625 2.293 2.47 5.291 2.536 8.994 0 1.531-.198 3.01-.592 4.439h28.25c2.766 0 5.014-2.248 5.014-5.014v-61.278999999999996c0-2.767-2.248-5.013-5.014-5.013zm3.945 22.117h-11.382v11.383h-5.514v-11.383h-11.382v-5.514h11.382v-11.381h5.514v11.381h11.382v5.514z"/></svg>