<svg xmlns="http://www.w3.org/2000/svg" width="100" height="100"><g fill="#231F20"><path d="M45.718 55.325c-3.727-1.408-7.229-3.226-10.202-5.401l-.233-.168c-.433-.322-.851-.654-1.259-.991l-.316-.267c-.353-.301-.697-.606-1.03-.919l-.188-.173c-.373-.357-.73-.724-1.074-1.096l-.268-.296c-.305-.34-.598-.685-.877-1.037l-.125-.154c-.306-.393-.591-.796-.862-1.204l-.204-.315c-.246-.385-.479-.774-.693-1.171l-.066-.117c-.227-.429-.428-.867-.615-1.309l-.135-.333c-.172-.434-.331-.872-.463-1.318l-.02-.06c-.135-.463-.241-.934-.331-1.41l-.062-.352c-.08-.482-.144-.968-.176-1.464-.042-.665-.055-1.318-.047-1.963l.025-.589c.016-.447.039-.892.081-1.329l.078-.652c.052-.412.113-.821.189-1.225l.129-.629c.091-.413.198-.82.315-1.224l.163-.547c.148-.454.316-.9.499-1.341l.144-.361c.77-1.752 1.821-3.401 3.185-4.943l-15.07 3.608c-3.027.724-4.895 3.765-4.171 6.793l12.535 52.421c.725 3.027 3.766 4.896 6.793 4.171l6.451-1.543c-2.504-.829-6.833-2.409-10.982-4.623l6.015-13.644s7.079 6.304 17.242 6.304c10.165 0 14.682-11.93-4.375-19.129zM87.961 68.632l-12.536-52.421c-.723-3.028-3.765-4.895-6.793-4.171l-10.797 2.581c.86.136 1.984.346 3.307.667l.975.249.357.097.738.209.394.115c.353.106.714.218 1.083.339l.355.12.84.29.481.174.867.329.397.154c.406.162.818.335 1.235.515l.428.19.949.434.441.21c.452.219.906.444 1.365.685l-4.702 13.03s-3.913-4.371-14.405-4.903c-9.974-.504-15.522 10.285 3.931 16.647.573.188 1.127.384 1.67.585l.446.169c.42.16.832.324 1.234.492l.369.153c.508.218 1.004.441 1.484.671l.181.09c.418.203.824.411 1.221.622l.353.191c.379.208.75.42 1.109.636l.194.115c.424.259.833.523 1.229.792l.202.141c.327.226.645.456.953.689l.252.192c.357.276.706.556 1.038.841 5.631 4.835 7.638 10.851 7.476 16.562-.128 4.513-1.707 8.184-3.538 10.953l11.048-2.641c3.025-.723 4.892-3.766 4.169-6.793z"/></g></svg>