<svg xmlns="http://www.w3.org/2000/svg" width="100" height="100"><g fill="#231F20"><path d="M67.961 45.288c0 9.919-8.041 17.96-17.96 17.96s-17.96-8.041-17.96-17.96c0-2.795.657-5.43 1.795-7.788h-19.836v42c0 3.85 3.15 7 7 7h58c3.85 0 7-3.15 7-7v-42h-19.835c1.139 2.358 1.796 4.993 1.796 7.788zM79 13.5h-58c-3.85 0-7 3.15-7 7v14h21.665c3.278-4.349 8.47-7.172 14.335-7.172s11.057 2.823 14.335 7.172h21.665v-14c0-3.85-3.15-7-7-7zm-59.244 17.716h-2.606v-10.095c0-1.766 1.076-3.279 2.607-3.922v14.017zm4.27 0h-2.469v-14.348h2.469v14.348zm4.269 0h-2.469v-14.348h2.469v14.348zm4.266-10.095v10.094999999999999h-2.466v-14.348h2.466v4.253zm49.79 5.842c0 2.35-1.904 4.253-4.251 4.253h-6.909c-2.348 0-4.252-1.903-4.252-4.253v-5.842c0-2.35 1.904-4.253 4.252-4.253h6.909c2.348 0 4.251 1.903 4.251 4.253v5.842zM50.001 61.148c8.736 0 15.818-7.085 15.818-15.819 0-8.735-7.081-15.82-15.818-15.82-8.738 0-15.82 7.085-15.82 15.82 0 8.733 7.082 15.819 15.82 15.819zm-.001-28.423c6.96 0 12.604 5.643 12.604 12.604 0 6.96-5.643 12.604-12.604 12.604s-12.604-5.643-12.604-12.604c.001-6.962 5.644-12.604 12.604-12.604z"/></g></svg>