<svg xmlns="http://www.w3.org/2000/svg" width="100" height="100"><circle cx="32.961" cy="81.02" r="5.889"/><circle cx="74.309" cy="81.02" r="5.889"/><path d="M73.513 55.216c1.377 0 2.556-.812 3.11-1.978l.003.002 14.589-25.27-.018-.01c.214-.449.344-.946.344-1.477 0-1.907-1.545-3.452-3.452-3.452h-53.589999999999996v-6.488c0-1.907-1.545-3.452-3.452-3.452h-18.861v.028l-.275-.028c-1.763 0-3.202 1.327-3.41 3.035h-.042v3.452c0 1.907 1.545 3.452 3.452 3.452l.275-.028v.028h12.373v43.733h.001c.005 1.902 1.548 3.442 3.451 3.442h59.256v-.085c1.633-.103 2.948-1.329 3.185-2.922h.049v-.49l.002-.018-.002-.018v-3.002l.002-.018c0-1.833-1.432-3.316-3.236-3.429v-.022h-52.769v-4.988h39.015z"/></svg>