<svg xmlns="http://www.w3.org/2000/svg" width="100" height="100"><g fill="#231F20"><path d="M60.623 18.128l3.36-6.136c.179-.322.062-.733-.262-.909-.329-.179-.734-.056-.907.265l-3.396 6.197c-2.856-1.267-6.053-1.981-9.432-1.978-3.373-.003-6.564.707-9.411 1.972l-3.398-6.184c-.174-.326-.584-.445-.904-.267-.326.174-.446.583-.265.905l3.362 6.13c-6.606 3.408-11.068 9.893-11.064 17.341l43.365-.004c.002-7.446-4.452-13.92-11.048-17.332zm-20.499 9.481c-.999-.002-1.812-.815-1.812-1.818 0-.998.813-1.818 1.813-1.818 1.006 0 1.819.82 1.82 1.818 0 1.003-.814 1.818-1.821 1.818zm19.746-.004c-1.002 0-1.82-.811-1.818-1.818 0-.996.814-1.816 1.818-1.82.997.002 1.815.824 1.815 1.822 0 1.003-.813 1.816-1.815 1.816zM83.009 41.038c0-2.66-2.155-4.814-4.815-4.814-2.658-.002-4.813 2.156-4.812 4.816l.002 20.159c.001 2.662 2.155 4.815 4.816 4.813 2.658 0 4.811-2.151 4.812-4.815l-.003-20.159zM71.523 37.131l-43.039.008.007 31.241c-.001.819.207 1.581.546 2.267.837 1.697 2.567 2.872 4.591 2.872h3.498l.004 10.666c0 .332.034.656.098.969.448 2.194 2.39 3.846 4.712 3.846.332 0 .657-.034.971-.098 2.194-.45 3.845-2.393 3.845-4.718l-.003-10.666h6.499v10.666c.003 2.323 1.657 4.268 3.848 4.715.313.064.637.097.969.097 2.66.002 4.815-2.159 4.815-4.817l-.003-10.662 3.511-.002c.961.001 1.851-.281 2.621-.742 1.5-.897 2.517-2.52 2.518-4.398l-.008-31.244zM21.801 36.229c-2.659 0-4.813 2.159-4.814 4.814l.003 20.161c.001 1.683.862 3.156 2.164 4.017.761.504 1.671.8 2.651.802 2.328-.003 4.269-1.65 4.716-3.847.064-.314.097-.639.097-.972v-20.162c0-2.657-2.158-4.813-4.817-4.813z"/></g></svg>