<svg xmlns="http://www.w3.org/2000/svg" width="100" height="100"><path d="M90.694 76.981c-.194-.194-.448-.291-.703-.291v-.012h-5.208c3.816-2.52 5.064-4.32 5.064-6.504 0-3.216-2.712-5.521-6.865-5.521-2.138 0-4.685.695-6.521 2.481l-.13.087-.062.093-.055.052.012.014c-.225.336-.224.761.005 1.096l-.016.01 1.367 1.995h.001c.347.346.878.365 1.265.092l.007.009.108-.085.025-.016.005-.007c1.184-.965 2.446-1.548 4.088-1.548 1.032 0 1.848.48 1.848 1.248 0 1.2-.696 1.8-8.017 6.96v.022l-.197.131c-.162.162-.24.367-.267.578h-.024v2.609c0 .241.195.437.437.437l.052-.01v.004h13.082c.254 0 .509-.097.703-.291.194-.194.291-.448.291-.703v-2.225c-.004-.257-.101-.511-.295-.705zM70.495 33.34l-3.389-3.39c-1.017-1.017-2.666-1.017-3.683 0l-.016-.016-13.033 13.034-13.034-13.034c-1.017-1.017-2.666-1.017-3.683 0l-3.389 3.389c-1.017 1.017-1.017 2.666 0 3.683l-.016.016 13.033 13.033-13.033 13.035.016.016c-1.017 1.017-1.017 2.666 0 3.683l3.389 3.389c1.017 1.017 2.666 1.017 3.683 0l13.033-13.033 13.033 13.033.016-.016c1.017 1.017 2.666 1.017 3.683 0l3.389-3.389c1.017-1.017 1.017-2.666 0-3.683l-13.032-13.034 13.033-13.033c1.018-1.017 1.018-2.666 0-3.683z"/></svg>