<svg xmlns="http://www.w3.org/2000/svg" width="100" height="100"><path d="M45.697 45.697c-2.377 2.375-2.377 6.227-.002 8.603 2.379 2.38 6.231 2.378 8.606.001 2.38-2.378 2.38-6.228 0-8.607-2.375-2.376-6.226-2.377-8.604.003zM76.549 79.165c15.972-16.109 15.934-42.207-.122-58.263l-.073-.059.006-.006-1.696-1.698-.02.02c-.927-.738-2.266-.695-3.136.141l-.003-.003-.026.026-.008.007-.006.008-2.773 2.772-.002.002-.002.002-.2.2.02.02c-.682.868-.678 2.087.01 2.951l-.019.019.19.19v.001h.001l1.506 1.505.027-.027.06.073c12.667 12.668 12.707 33.254.122 45.974l-.017-.017-1.504 1.504-.003.002-.002.003-.188.188.019.019c-.738.927-.695 2.266.141 3.136l-.003.003.031.031.002.003.003.002 1.396 1.396.002.003.003.002 1.376 1.376.002.003.003.002.198.198.02-.02c.868.682 2.088.679 2.952-.009l.019.019 1.567-1.568.005-.004.018-.019.107-.107-.003-.001zM64.923 67.54c9.561-9.699 9.523-25.365-.123-35.01l-.073-.06.007-.007-1.697-1.698-.02.02c-.927-.737-2.266-.695-3.136.141l-.003-.003-.029.029-.005.004-.004.005-2.774 2.774-.004.003-.003.004-.198.198.02.02c-.682.867-.679 2.087.009 2.951l-.019.019.189.189.002.002.002.002 1.504 1.505.027-.027.06.073c6.258 6.257 6.293 16.407.119 22.717l-.013-.013-1.505 1.505-.002.001-.001.002-.189.189.019.019c-.737.927-.695 2.265.141 3.135l-.004.004 2.816 2.815.201.201.02-.02c.868.681 2.087.678 2.951-.009l.02.02 1.572-1.572.125-.125-.002-.003zM54.305 45.7c-2.379-2.38-6.231-2.377-8.606-.001-2.379 2.379-2.379 6.228 0 8.605 2.376 2.377 6.227 2.379 8.605-.001 2.376-2.375 2.376-6.227.001-8.603zM43.109 63.089l.019-.019-.188-.188-.003-.004-.003-.003-1.503-1.504-.027.027-.059-.072c-6.258-6.258-6.293-16.408-.119-22.718l.013.013 1.697-1.696-.02-.02c.738-.927.695-2.266-.141-3.135l.004-.004-3.018-3.017-.02.02c-.868-.682-2.086-.679-2.951.009l-.019-.019-.191.191-1.381 1.381-.125.125.003.003c-9.562 9.699-9.523 25.365.123 35.011l.072.059-.006.006 1.697 1.698.02-.02c.926.737 2.264.694 3.135-.141l.003.003.029-.029.005-.004.004-.005 2.775-2.775.003-.002.002-.002.199-.199-.02-.02c.682-.867.679-2.086-.009-2.95zM31.483 74.715l.019-.019-.19-.19-.001-.001-.001-.001-1.506-1.505-.027.027-.059-.073c-12.668-12.669-12.706-33.253-.121-45.973l.016.016 1.504-1.504.003-.002.002-.003.188-.188-.019-.019c.738-.927.696-2.266-.141-3.136l.004-.004-1.434-1.434-.001-.001-.001-.001-1.581-1.581-.02.021c-.867-.682-2.086-.679-2.951.009l-.02-.02-1.696 1.697.003.003c-15.974 16.11-15.936 42.209.121 58.265l.073.059-.007.007 1.697 1.698.02-.02c.927.737 2.266.694 3.136-.142l.003.003.033-.033 2.778-2.779.005-.004.004-.005.196-.196-.02-.02c.682-.867.679-2.086-.009-2.951z"/></svg>