<svg xmlns="http://www.w3.org/2000/svg" width="100" height="100"><path fill="#231F20" d="M79 14h-58c-3.866 0-7 3.134-7 7v58c0 3.866 3.134 7 7 7h58c3.866 0 7-3.134 7-7v-58c0-3.866-3.135-7-7-7zm-23.045 5.229c10.658 0 19.298 8.641 19.298 19.299 0 4.108-1.294 7.909-3.482 11.039-2.883-2.27-6.511-3.634-10.465-3.634-6.582 0-12.275 3.76-15.082 9.242-5.718-3.35-9.568-9.541-9.568-16.646 0-10.659 8.64-19.3 19.299-19.3zm-36.103 27.702c0-11.635 8.755-21.22 20.036-22.54-3.324 3.774-5.356 8.713-5.356 14.138 0 7.981 4.373 14.928 10.845 18.614-.267.742-.474 1.511-.64 2.295-1.087-.325-2.237-.505-3.429-.505-4.89 0-9.088 2.941-10.937 7.148-6.323-4.03-10.519-11.098-10.519-19.15zm21.454 34.145c-5.632 0-10.197-4.564-10.197-10.197 0-5.631 4.565-10.196 10.197-10.196 5.631 0 10.197 4.565 10.197 10.196 0 5.633-4.566 10.197-10.197 10.197zm20-3.25c-3.286 0-6.315-1.073-8.782-2.87.463-1.274.729-2.643.729-4.077 0-4.689-2.708-8.735-6.639-10.691 1.269-6.968 7.357-12.255 14.693-12.255 8.255 0 14.947 6.692 14.947 14.946-.001 8.256-6.693 14.947-14.948 14.947z"/></svg>