<svg xmlns="http://www.w3.org/2000/svg" width="100" height="100"><path d="M34.199 47.04v-6.415h.022c.163-5.466 1.39-10.528 3.382-14.767.223-.731.474-1.447.756-2.145-1.879-1.251-4.026-2.022-6.349-2.022-7.114 0-12.872 6.702-12.872 14.978 0 5.79 2.83 10.801 6.962 13.295l-17.448 8.122c-1.088.511-1.804 1.739-1.804 3.111v13.771c0 1.846 1.289 3.341 2.874 3.341h11.532v-14.45c0-3.739 2.068-7.121 5.275-8.623l7.669-3.572v-4.624zM90.853 60.441l-15.66-7.47-6.621-3.159.487-.335h8.695c1.346 0 2.438-1.091 2.438-2.438v-6.415h-.022c-.266-8.937-3.368-16.798-8.029-21.731-2.46-2.777-5.65-4.663-9.219-5.226l-.474-.07-.555-.062c-.398-.035-.798-.059-1.202-.059-.398 0-.793.023-1.186.057l-.557.062-.469.068c-3.532.553-6.694 2.405-9.145 5.134-4.712 4.927-7.853 12.832-8.121 21.827h-.022v6.415c0 1.346 1.091 2.438 2.438 2.438h8.719c.238.162.475.327.721.475l-6.342 2.953-16.168 7.53c-1.405.658-2.328 2.242-2.328 4.011v17.765c0 2.381 1.659 4.311 3.708 4.311h57.505c2.049 0 3.708-1.93 3.708-4.311v-17.765c0-1.763-.908-3.332-2.299-4.005z"/></svg>