<svg xmlns="http://www.w3.org/2000/svg" width="100" height="100"><path d="M49.984 27.452c-12.453 0-22.548 10.095-22.548 22.548 0 12.453 10.095 22.548 22.548 22.548s22.547-10.095 22.547-22.548c0-12.453-10.095-22.548-22.547-22.548zm0 35.156c-6.964 0-12.609-5.645-12.609-12.608 0-6.964 5.645-12.609 12.609-12.609s12.608 5.645 12.608 12.609c0 6.963-5.645 12.608-12.608 12.608zM50 12.5c-20.712 0-37.5 16.793-37.5 37.502 0 20.71 16.788 37.498 37.5 37.498s37.5-16.788 37.5-37.498c0-20.709-16.788-37.502-37.5-37.502zm0 65.061c-15.199 0-27.56-12.362-27.56-27.559 0-15.195 12.362-27.562 27.56-27.562 15.198 0 27.56 12.367 27.56 27.562 0 15.196-12.362 27.559-27.56 27.559z"/><circle cx="49.984" cy="50" r="7.621"/></svg>