<svg xmlns="http://www.w3.org/2000/svg" width="100" height="100"><path fill="#231F20" d="M77.919 7.434l-.127.013v-.013h-55.838v.013c-1.616.068-2.908 1.389-2.908 3.022v79.062c0 1.633 1.292 2.954 2.908 3.022v.013h55.838v-.013l.127.013c1.676 0 3.035-1.358 3.035-3.035v-79.062c0-1.677-1.359-3.035-3.035-3.035zm-28.046 82.638c-1.372 0-2.484-1.113-2.484-2.485 0-1.372 1.112-2.484 2.484-2.484 1.372 0 2.484 1.112 2.484 2.484 0 1.372-1.112 2.485-2.484 2.485zm21.124-7.463h-41.994v-65.218h41.995v65.218z"/></svg>