<svg xmlns="http://www.w3.org/2000/svg" width="100" height="100"><path d="M75.834 33.388h-51.67c-1.311 0-2.375 1.058-2.375 2.373v49.887c0 1.314 1.064 2.377 2.375 2.377h51.67c1.314 0 2.375-1.063 2.375-2.377v-49.888c0-1.314-1.061-2.372-2.375-2.372zM79.004 17.352h-19.602v-2.999c0-1.314-1.061-2.377-2.373-2.377h-14.058c-1.312 0-2.375 1.063-2.375 2.377v2.999h-19.6c-1.312 0-2.375 1.059-2.375 2.373v6.932c0 1.314 1.063 2.373 2.375 2.373h58.008c1.314 0 2.375-1.059 2.375-2.373v-6.932c0-1.315-1.061-2.373-2.375-2.373z"/></svg>