<svg xmlns="http://www.w3.org/2000/svg" width="100" height="100"><path fill="#231F20" d="M92.566 22.081c0-1.676-1.358-3.035-3.035-3.035h-79.062c-1.676 0-3.035 1.359-3.035 3.035l.013.127h-.013v55.838h.013c.068 1.616 1.389 2.908 3.022 2.908h79.062c1.633 0 2.954-1.292 3.022-2.908h.013v-55.838h-.013l.013-.127zm-9.957 48.916h-65.218v-41.994h65.219v41.994zm4.978-18.386c-1.372 0-2.484-1.112-2.484-2.484 0-1.372 1.112-2.484 2.484-2.484 1.372 0 2.485 1.112 2.485 2.484 0 1.372-1.113 2.484-2.485 2.484z"/></svg>