<svg xmlns="http://www.w3.org/2000/svg" width="100" height="100"><path d="M99.483 33.642l-.094-.077-12.231-12.238c-2.378 1.59-5.623 1.336-7.722-.763-2.1-2.1-2.353-5.347-.761-7.725l-12.317-12.323c-.689-.688-1.805-.687-2.494 0l-63.344 63.346-.003.003c-.689.689-.689 1.805 0 2.494l.001.001 12.325 12.313c2.377-1.59 5.623-1.336 7.722.763 2.098 2.098 2.353 5.34.767 7.718l12.166 12.154.144.176c.689.689 1.804.689 2.493 0l.001.001 63.347-63.349c.689-.69.689-1.806 0-2.494zm-13.965 2.493l-49.382 49.383c-.689.689-1.804.689-2.493 0l-19.159-19.16c-.689-.689-.689-1.804 0-2.493l49.381-49.382c.689-.688 1.805-.688 2.493 0l19.16 19.161c.689.687.689 1.803 0 2.491zM61.923 51.521l-6.821-3.259.83-7.134c.025-.216-.09-.425-.286-.52-.195-.094-.43-.055-.585.099l-5.097 5.098-6.653-3.178c-.196-.094-.429-.054-.583.099-.154.152-.193.386-.1.582l3.179 6.655-5.098 5.096c-.154.153-.193.389-.099.586.095.195.304.309.52.284l7.132-.829 3.26 6.822c.093.194.299.309.513.288.215-.021.394-.176.446-.386l1.87-7.476 7.478-1.871c.091-.023.173-.071.238-.135.081-.081.135-.191.148-.311.019-.212-.096-.418-.292-.51z"/></svg>