<svg xmlns="http://www.w3.org/2000/svg" width="100" height="100"><path d="M80.161 60.442l-15.66-7.47-6.622-3.159.487-.335h8.695c1.346 0 2.438-1.091 2.438-2.438v-6.415h-.022c-.266-8.94-3.371-16.805-8.034-21.737-2.459-2.773-5.646-4.657-9.211-5.22l-.478-.071-.553-.061c-.398-.035-.798-.059-1.202-.059h-.002c-.398 0-.791.023-1.183.057l-.56.062-.465.068c-3.536.553-6.701 2.408-9.153 5.141-4.708 4.927-7.847 12.829-8.115 21.821h-.021v6.415c0 1.346 1.091 2.438 2.438 2.438h8.719c.238.162.475.327.721.475l-6.342 2.953-16.168 7.53c-1.405.658-2.327 2.242-2.327 4.011v17.765c0 2.381 1.659 4.311 3.708 4.311h57.504c2.049 0 3.708-1.93 3.708-4.311v-17.767c-.001-1.763-.909-3.332-2.3-4.004z"/></svg>