<svg xmlns="http://www.w3.org/2000/svg" width="100" height="100"><path d="M30.278 17.553h-10.456c-1.253 0-2.269 1.017-2.269 2.269v10.454c0 1.253 1.016 2.269 2.269 2.269h10.455c1.253 0 2.269-1.016 2.269-2.269v-10.453c.001-1.253-1.015-2.27-2.268-2.27zM55.227 17.553h-10.455c-1.253 0-2.269 1.017-2.269 2.269v10.454c0 1.253 1.016 2.269 2.269 2.269h10.455c1.253 0 2.269-1.016 2.269-2.269v-10.453c.001-1.253-1.015-2.27-2.269-2.27zM82.446 19.822c0-1.252-1.016-2.269-2.269-2.269h-10.456c-1.253 0-2.269 1.017-2.269 2.269v10.454999999999998c0 1.253 1.016 2.27 2.269 2.27h10.455c1.253 0 2.269-1.016 2.269-2.269v-10.456h.001zM30.278 42.506h-10.456c-1.253 0-2.269 1.017-2.269 2.269v10.455c0 1.253 1.016 2.269 2.269 2.269h10.455c1.253 0 2.269-1.016 2.269-2.269v-10.454c.001-1.253-1.015-2.27-2.268-2.27zM55.227 42.506h-10.455c-1.253 0-2.269 1.017-2.269 2.269v10.455c0 1.253 1.016 2.269 2.269 2.269h10.455c1.253 0 2.269-1.016 2.269-2.269v-10.454c.001-1.253-1.015-2.27-2.269-2.27zM80.177 42.506h-10.456c-1.253 0-2.269 1.017-2.269 2.269v10.454999999999998c0 1.253 1.016 2.27 2.269 2.27h10.455c1.253 0 2.269-1.016 2.269-2.269v-10.455c.001-1.253-1.015-2.27-2.268-2.27zM30.278 67.454h-10.456c-1.253 0-2.269 1.017-2.269 2.269v10.454c0 1.253 1.016 2.269 2.269 2.269h10.455c1.253 0 2.269-1.016 2.269-2.269v-10.454c.001-1.252-1.015-2.269-2.268-2.269zM55.227 67.454h-10.455c-1.253 0-2.269 1.017-2.269 2.269v10.454c0 1.253 1.016 2.269 2.269 2.269h10.455c1.253 0 2.269-1.016 2.269-2.269v-10.454c.001-1.252-1.015-2.269-2.269-2.269zM80.177 67.454h-10.456c-1.253 0-2.269 1.017-2.269 2.269v10.453999999999999c0 1.253 1.016 2.27 2.269 2.27h10.455c1.253 0 2.269-1.016 2.269-2.269v-10.455c.001-1.252-1.015-2.269-2.268-2.269z"/></svg>