<svg xmlns="http://www.w3.org/2000/svg" width="100" height="100"><g fill="#231F20"><path d="M50 12.5c-20.712 0-37.5 16.793-37.5 37.502 0 20.71 16.788 37.498 37.5 37.498s37.5-16.788 37.5-37.498c0-20.709-16.788-37.502-37.5-37.502zm0 65.061c-15.199 0-27.56-12.362-27.56-27.559 0-15.195 12.362-27.562 27.56-27.562 15.198 0 27.56 12.367 27.56 27.562 0 15.196-12.362 27.559-27.56 27.559z"/><circle cx="49.63" cy="32.546" r="4.723"/><path d="M65.892 48.189l-8.973-8.974-.089-.089-.061-.061-.006.006c-.391-.342-.897-.556-1.457-.556l-.148.015h-10.455l-.008-.001c-.561 0-1.067.214-1.458.557l-.005-.005-.055.055-.1.1-8.968 8.968.015.015c-.361.359-.584.856-.584 1.406 0 1.097.889 1.986 1.986 1.986.549 0 1.046-.223 1.406-.583l.003.003 6.673-6.673v.004c.115-.118.275-.192.452-.192.35 0 .634.284.634.635v24.466c0 1.282 1.04 2.322 2.323 2.322 1.282 0 2.322-1.04 2.322-2.322v-12.336h.017c0-.356.288-.644.643-.644.355 0 .643.288.643.644h.017v12.334c0 1.282 1.04 2.322 2.322 2.322 1.283 0 2.323-1.04 2.323-2.322v-24.394h.02l-.02-.099c0-.35.284-.633.635-.633.155 0 .292.062.402.155v-.007l.021.021.042.042 6.66 6.661.003-.003c.36.36.857.583 1.406.583 1.097 0 1.986-.889 1.986-1.986 0-.549-.223-1.046-.584-1.406l.017-.014z"/></g></svg>