<svg xmlns="http://www.w3.org/2000/svg" width="100" height="100"><path d="M51.77 75.42c-2.255 1.564-4.988 2.487-7.941 2.487-7.706 0-13.954-6.248-13.954-13.954 0-2.952.922-5.686 2.487-7.94l-5.348-5.348c-3.026 3.725-4.852 8.465-4.852 13.639 0 11.967 9.701 21.668 21.667 21.668 5.174 0 9.923-1.816 13.649-4.843l-5.708-5.709z"/><circle cx="68.862" cy="21.181" r="7.152"/><path d="M73.35 45.582h-15.741l8.977-8.978c.271-.215.515-.458.73-.729l.073-.073-.007-.007c.569-.752.919-1.679.919-2.694 0-1.623-.869-3.031-2.159-3.819l.001-.001-20.103-11.606-.017.03c-.564-.255-1.184-.405-1.843-.405-1.152 0-2.191.447-2.986 1.16l-.006-.006-.06.06-.222.222-8.865 8.865.008.008c-.762.804-1.237 1.884-1.237 3.08 0 2.479 2.009 4.487 4.487 4.487 1.196 0 2.276-.475 3.08-1.237l.008.008.081-.081.008-.008 6.457-6.457 5.514 3.184-13.011 13.012c-2.514.775-4.823 2.008-6.854 3.582l5.307 5.307c2.255-1.564 4.988-2.487 7.94-2.487 7.707 0 13.954 6.248 13.954 13.954 0 2.952-.922 5.686-2.487 7.94l5.666 5.667c2.839-3.665 4.534-8.261 4.534-13.256 0-3.507-.838-6.816-2.317-9.746h5.683v18.371c0 2.479 2.009 4.488 4.488 4.488 2.479 0 4.488-2.01 4.488-4.488v-22.86c0-2.478-2.01-4.487-4.488-4.487z"/></svg>