<svg xmlns="http://www.w3.org/2000/svg" width="100" height="100"><path d="M86.257 23.405l-3.866 3.866-3.737 3.737-4.759 4.759c-2.521.161-5.096-.713-7.023-2.64-1.927-1.927-2.8-4.502-2.64-7.023l4.759-4.759 3.737-3.737 3.866-3.866c.251-.251.251-.659 0-.911l-.155-.103.001-.001-.01-.004-.102-.043c-2.677-1.193-5.629-1.878-8.749-1.878-11.939 0-21.618 9.679-21.618 21.618 0 2.28.358 4.475 1.012 6.538l-22.545 22.546c-7.545.122-13.627 6.267-13.627 13.842 0 7.65 6.203 13.853 13.853 13.853 7.574 0 13.72-6.083 13.842-13.628l22.546-22.546c2.063.654 4.259 1.012 6.539 1.012 11.939 0 21.618-9.679 21.618-21.618 0-3.118-.686-6.066-1.877-8.742l-.05-.118-.022-.052-.007.007-.074-.111c-.253-.25-.66-.25-.912.002zm-55.879 51.941c0 3.161-2.563 5.724-5.724 5.724s-5.724-2.563-5.724-5.724c0-3.162 2.563-5.725 5.724-5.725s5.724 2.563 5.724 5.725z"/></svg>