<svg xmlns="http://www.w3.org/2000/svg" width="100" height="100"><path fill="#231F20" d="M50 12.5c-20.712 0-37.5 16.793-37.5 37.502 0 20.71 16.788 37.498 37.5 37.498s37.5-16.788 37.5-37.498c0-20.709-16.788-37.502-37.5-37.502zm-27.103 42.469h5.752c.985 7.432 4.148 14.173 8.826 19.569-7.501-3.844-13.015-11.022-14.578-19.569zm5.752-9.939h-5.752c1.564-8.546 7.078-15.724 14.579-19.568-4.678 5.396-7.842 12.137-8.827 19.568zm16.381 23.029c-3.177-3.65-5.406-8.14-6.313-13.089h6.313v13.089zm0-23.029h-6.313c.907-4.948 3.136-9.437 6.313-13.088v13.088zm32.072 0h-5.751c-.985-7.431-4.148-14.172-8.825-19.567 7.499 3.845 13.013 11.023 14.576 19.567zm-22.132 23.027v-13.088h6.313c-.908 4.948-3.137 9.438-6.313 13.088zm0-23.027v-13.089c3.177 3.65 5.406 8.14 6.313 13.089h-6.313zm7.553 29.509c4.678-5.396 7.843-12.137 8.828-19.57h5.752c-1.563 8.548-7.078 15.726-14.58 19.57z"/></svg>