<svg xmlns="http://www.w3.org/2000/svg" width="100" height="100"><path d="M76.275 22.811c.049-.049.079-.116.079-.191 0-.134-.103-.233-.232-.255v-.017h-12.001000000000001c-.338 0-.62.191-.78.463h-.016l-13.281 21.49-13.281-21.49h-.014c-.159-.272-.442-.463-.78-.463h-12.052000000000001c-.15 0-.272.122-.272.272 0 .074.031.142.079.191h-.001l16.42 25.354h-14.166v.017l-.072-.015c-.637 0-1.153.516-1.153 1.153v4.12h.014c.038.602.527 1.083 1.139 1.083l.072-.014v.015h18.352v6.439h-18.352v.002l-.012-.002c-.637 0-1.153.516-1.153 1.153v3.969c0 .637.516 1.153 1.153 1.153l.012-.002v.004h18.352v9.199l-.012.058c0 .637.516 1.153 1.153 1.153h.002l.001.001h9.141v-.001c.636-.001 1.151-.517 1.151-1.153l-.006-.031v-9.225h18.433v-.004l.01.002c.637 0 1.153-.516 1.153-1.153v-3.969c0-.637-.516-1.153-1.153-1.153l-.01.002v-.002h-18.433v-6.439h18.433v-.003l.01.002c.637 0 1.153-.516 1.153-1.153v-4.121h-.014c-.038-.602-.527-1.083-1.139-1.083l-.01.002v-.004h-14.328l16.42-25.354h-.009z"/></svg>