<svg xmlns="http://www.w3.org/2000/svg" width="100" height="100"><path d="M56.774 10.391c-17.679 0-32 14.329-32 32 0 6.044 1.676 11.695 4.588 16.517l-15.516 15.515.054.054c-1.656 1.585-2.673 3.835-2.673 6.378-.001 4.913 3.913 8.755 8.821 8.754 2.507-.001 4.749-1.004 6.349-2.636l.039.039 16.008-16.009c4.312 2.163 9.176 3.388 14.33 3.388 17.68 0 32-14.327 32-32-.001-17.671-14.321-32-32-32zm.194 51.417c-11.05 0-20-8.954-20-20 0-11.044 8.951-20 20-20 11.05 0 20 8.955 20 20 0 11.046-8.95 20-20 20zM68.751 37.111v-.03l-7.076.008-.009-7.058c0-.868-.703-1.57-1.569-1.57l-.097.01h-6.084l-.097-.01c-.867 0-1.569.702-1.569 1.57l.016.158-.007 6.911-7.061.008c-.868 0-1.569.703-1.569 1.57v6.278c0 .867.702 1.569 1.569 1.569l.158-.016 6.893.007-.009 7.034h.011l-.002.024c0 .868.703 1.569 1.569 1.569l.01-.001v.011h6.278v-.011c.858-.006 1.551-.698 1.558-1.556h.03l-.009-7.059 7.028.007v-.011l.024.002c.868 0 1.569-.703 1.569-1.569v-6.278c.002-.861-.693-1.561-1.555-1.567z"/></svg>